<svg xmlns="http://www.w3.org/2000/svg" width="1600" height="900" viewBox="0 0 1600 900" role="img" aria-labelledby="title desc">
  <title id="title">Figure 4.6: Alert lifecycle diagram</title>
  <desc id="desc">A transparent Microsoft Word style lifecycle diagram showing how PayGuard alerts move through review states.</desc>
  <defs>
    <marker id="arrow" markerWidth="12" markerHeight="12" refX="10" refY="6" orient="auto">
      <path d="M2 2 L10 6 L2 10 Z" fill="#111827"/>
    </marker>
    <style>
      .title { fill: #111827; font-family: Calibri, Arial, sans-serif; font-size: 40px; font-weight: 700; }
      .subtitle { fill: #4b5563; font-family: Calibri, Arial, sans-serif; font-size: 22px; }
      .startEnd { fill: #1e9bf0; stroke: #0f6fb5; stroke-width: 2; }
      .state { fill: #39b54a; stroke: #258a35; stroke-width: 2; }
      .review { fill: #f9b21a; stroke: #c8890d; stroke-width: 2; }
      .terminal { fill: #6b35d8; stroke: #4e22ad; stroke-width: 2; }
      .closed { fill: #e92b8b; stroke: #b91c6b; stroke-width: 2; }
      .note { fill: #ffffff; stroke: #e65b34; stroke-width: 2; stroke-dasharray: 8 6; }
      .textLight { fill: #ffffff; font-family: Calibri, Arial, sans-serif; font-size: 21px; font-weight: 700; }
      .textDark { fill: #111827; font-family: Calibri, Arial, sans-serif; font-size: 18px; font-weight: 700; }
      .small { fill: #111827; font-family: Calibri, Arial, sans-serif; font-size: 17px; font-weight: 600; }
      .line { stroke: #111827; stroke-width: 2.5; fill: none; marker-end: url(#arrow); stroke-linecap: round; stroke-linejoin: round; }
    </style>
  </defs>

  <text x="90" y="86" class="title">PayGuard Alert Lifecycle Diagram</text>
  <text x="90" y="124" class="subtitle">How an alert is created, reviewed and completed in the prototype</text>

  <circle cx="170" cy="440" r="42" class="startEnd"/>
  <text x="170" y="448" class="textLight" text-anchor="middle">Start</text>

  <rect x="300" y="380" width="260" height="120" rx="35" class="state"/>
  <text x="430" y="426" class="textLight" text-anchor="middle">Alert Created</text>
  <text x="430" y="456" class="textLight" text-anchor="middle">by Scoring</text>

  <rect x="700" y="380" width="260" height="120" rx="35" class="review"/>
  <text x="830" y="426" class="textDark" text-anchor="middle">Open</text>
  <text x="830" y="456" class="textDark" text-anchor="middle">Awaiting Review</text>

  <rect x="1110" y="245" width="260" height="120" rx="35" class="terminal"/>
  <text x="1240" y="291" class="textLight" text-anchor="middle">Resolved</text>
  <text x="1240" y="321" class="textLight" text-anchor="middle">Action Taken</text>

  <rect x="1110" y="535" width="260" height="120" rx="35" class="closed"/>
  <text x="1240" y="581" class="textLight" text-anchor="middle">Closed</text>
  <text x="1240" y="611" class="textLight" text-anchor="middle">Dismissed</text>

  <circle cx="1475" cy="440" r="30" fill="#ffffff" stroke="#111827" stroke-width="4"/>
  <circle cx="1475" cy="440" r="17" fill="#111827"/>

  <path d="M212 440 H290" class="line"/>
  <text x="226" y="420" class="small">risk score reaches threshold</text>

  <path d="M560 440 H690" class="line"/>
  <text x="590" y="420" class="small">record saved</text>

  <path d="M960 440 C1030 420 1065 335 1100 305" class="line"/>
  <text x="990" y="360" class="small">review confirms issue</text>

  <path d="M960 440 C1035 475 1065 560 1100 595" class="line"/>
  <text x="990" y="545" class="small">false positive or no action</text>

  <path d="M1370 305 C1430 330 1458 390 1468 420" class="line"/>
  <path d="M1370 595 C1430 565 1458 490 1468 460" class="line"/>

  <path d="M830 500 C830 590 700 615 610 555 C560 522 598 475 700 460" class="line"/>
  <text x="620" y="625" class="small">kept open for further investigation</text>

  <rect x="530" y="725" width="570" height="76" rx="8" class="note"/>
  <text x="815" y="756" class="textDark" text-anchor="middle">Lifecycle rule</text>
  <text x="815" y="784" class="small" text-anchor="middle">Only open alerts remain active; resolved and closed alerts are completed outcomes.</text>
</svg>
