<svg xmlns="http://www.w3.org/2000/svg" width="1600" height="900" viewBox="0 0 1600 900" role="img" aria-labelledby="title desc">
  <title id="title">Figure 3.1: Existing system context diagram</title>
  <desc id="desc">A transparent Microsoft Word style context diagram showing the existing manual or semi-manual payment monitoring process.</desc>
  <defs>
    <marker id="arrow" markerWidth="12" markerHeight="12" refX="10" refY="6" orient="auto">
      <path d="M2 2 L10 6 L2 10 Z" fill="#111827"/>
    </marker>
    <style>
      .title { fill: #111827; font-family: Calibri, Arial, sans-serif; font-size: 40px; font-weight: 700; }
      .subtitle { fill: #4b5563; font-family: Calibri, Arial, sans-serif; font-size: 22px; }
      .entity { fill: #1e9bf0; stroke: #0f6fb5; stroke-width: 2; }
      .process { fill: #39b54a; stroke: #258a35; stroke-width: 2; }
      .store { fill: #f9b21a; stroke: #c8890d; stroke-width: 2; }
      .note { fill: #ffffff; stroke: #e65b34; stroke-width: 2; stroke-dasharray: 8 6; }
      .textLight { fill: #ffffff; font-family: Calibri, Arial, sans-serif; font-size: 22px; font-weight: 700; }
      .textDark { fill: #111827; font-family: Calibri, Arial, sans-serif; font-size: 20px; font-weight: 600; }
      .small { fill: #111827; font-family: Calibri, Arial, sans-serif; font-size: 17px; font-weight: 600; }
      .line { stroke: #111827; stroke-width: 2.4; fill: none; marker-end: url(#arrow); stroke-linecap: round; stroke-linejoin: round; }
      .plainLine { stroke: #111827; stroke-width: 2.4; fill: none; stroke-linecap: round; stroke-linejoin: round; }
    </style>
  </defs>

  <text x="90" y="86" class="title">Existing System Context Diagram</text>
  <text x="90" y="124" class="subtitle">Manual or semi-manual monitoring before the PayGuard prototype</text>

  <g transform="translate(0 12)">
    <rect x="650" y="330" width="320" height="170" rx="12" class="process"/>
    <text x="810" y="395" class="textLight" text-anchor="middle">Manual Payment</text>
    <text x="810" y="425" class="textLight" text-anchor="middle">Monitoring Process</text>
    <text x="810" y="455" class="textLight" text-anchor="middle">0</text>

    <rect x="110" y="235" width="260" height="95" rx="10" class="entity"/>
    <text x="240" y="277" class="textLight" text-anchor="middle">Student or</text>
    <text x="240" y="306" class="textLight" text-anchor="middle">Guardian</text>

    <rect x="110" y="560" width="260" height="95" rx="10" class="entity"/>
    <text x="240" y="602" class="textLight" text-anchor="middle">Finance</text>
    <text x="240" y="631" class="textLight" text-anchor="middle">Officer</text>

    <rect x="1225" y="235" width="270" height="95" rx="10" class="entity"/>
    <text x="1360" y="277" class="textLight" text-anchor="middle">Mobile Money</text>
    <text x="1360" y="306" class="textLight" text-anchor="middle">Provider</text>

    <rect x="1225" y="560" width="270" height="95" rx="10" class="entity"/>
    <text x="1360" y="602" class="textLight" text-anchor="middle">Management</text>
    <text x="1360" y="631" class="textLight" text-anchor="middle">or Auditor</text>

    <path d="M520 690 L900 690 L930 780 L550 780 Z" class="store"/>
    <text x="725" y="733" class="textDark" text-anchor="middle">Manual Reports</text>
    <text x="725" y="760" class="small" text-anchor="middle">spreadsheets, receipts, statements</text>

    <rect x="660" y="165" width="300" height="85" rx="8" class="note"/>
    <text x="810" y="202" class="textDark" text-anchor="middle">Main weakness</text>
    <text x="810" y="229" class="small" text-anchor="middle">slow review and delayed fraud detection</text>

    <path d="M370 282 H640" class="line"/>
    <text x="455" y="263" class="small">payment details</text>

    <path d="M650 430 H380 C335 430 330 560 370 600" class="line"/>
    <text x="438" y="458" class="small">receipts and queries</text>

    <path d="M1225 282 H982" class="line"/>
    <text x="1036" y="263" class="small">transaction statement</text>

    <path d="M970 430 H1215 C1265 430 1275 560 1225 605" class="line"/>
    <text x="1044" y="458" class="small">review summaries</text>

    <path d="M725 500 V680" class="line"/>
    <text x="742" y="590" class="small">manual recording</text>

    <path d="M520 735 H380 C330 735 318 655 370 620" class="line"/>
    <text x="406" y="716" class="small">investigation notes</text>

    <path d="M900 735 H1115 C1188 735 1225 665 1225 625" class="line"/>
    <text x="986" y="716" class="small">compiled reports</text>

    <line x1="810" y1="250" x2="810" y2="318" class="plainLine"/>
    <polygon points="810,330 802,314 818,314" fill="#111827"/>
  </g>
</svg>
