<svg xmlns="http://www.w3.org/2000/svg" width="1600" height="950" viewBox="0 0 1600 950" role="img" aria-labelledby="title desc">
  <title id="title">Figure 3.14: Dashboard wireframe</title>
  <desc id="desc">A transparent Microsoft Word style dashboard wireframe showing the PayGuard monitoring layout.</desc>
  <defs>
    <style>
      .title { fill: #111827; font-family: Calibri, Arial, sans-serif; font-size: 40px; font-weight: 700; }
      .subtitle { fill: #4b5563; font-family: Calibri, Arial, sans-serif; font-size: 22px; }
      .frame { fill: #ffffff; stroke: #111827; stroke-width: 2.5; }
      .sidebar { fill: #1e9bf0; stroke: #0f6fb5; stroke-width: 2; }
      .header { fill: #39b54a; stroke: #258a35; stroke-width: 2; }
      .card { fill: #ffffff; stroke: #111827; stroke-width: 2; }
      .accent { fill: #f9b21a; stroke: #c8890d; stroke-width: 2; }
      .purple { fill: #6b35d8; stroke: #4e22ad; stroke-width: 2; }
      .pink { fill: #e92b8b; stroke: #b91c6b; stroke-width: 2; }
      .light { fill: #f3f4f6; stroke: #9ca3af; stroke-width: 1.8; }
      .textLight { fill: #ffffff; font-family: Calibri, Arial, sans-serif; font-size: 20px; font-weight: 700; }
      .textDark { fill: #111827; font-family: Calibri, Arial, sans-serif; font-size: 19px; font-weight: 700; }
      .small { fill: #111827; font-family: Calibri, Arial, sans-serif; font-size: 16px; font-weight: 600; }
      .muted { fill: #4b5563; font-family: Calibri, Arial, sans-serif; font-size: 15px; font-weight: 600; }
      .line { stroke: #111827; stroke-width: 2; fill: none; stroke-linecap: round; stroke-linejoin: round; }
      .thin { stroke: #9ca3af; stroke-width: 1.5; fill: none; }
    </style>
  </defs>

  <text x="90" y="86" class="title">PayGuard Dashboard Wireframe</text>
  <text x="90" y="124" class="subtitle">Main monitoring screen for metrics, risk trends, scoring and recent alerts</text>

  <rect x="90" y="170" width="1420" height="705" rx="10" class="frame"/>

  <rect x="110" y="190" width="245" height="665" rx="8" class="sidebar"/>
  <text x="232" y="245" class="textLight" text-anchor="middle">PayGuard</text>
  <rect x="140" y="300" width="185" height="44" rx="8" fill="#ffffff" stroke="#0f6fb5" stroke-width="2"/>
  <text x="232" y="329" class="textDark" text-anchor="middle">Dashboard</text>
  <text x="232" y="390" class="textLight" text-anchor="middle">Alerts</text>
  <text x="232" y="440" class="textLight" text-anchor="middle">Transactions</text>
  <text x="232" y="490" class="textLight" text-anchor="middle">Accounts</text>
  <text x="232" y="540" class="textLight" text-anchor="middle">Model Metrics</text>
  <rect x="140" y="745" width="185" height="70" rx="8" fill="#ffffff" stroke="#0f6fb5" stroke-width="2"/>
  <text x="232" y="775" class="textDark" text-anchor="middle">API Status</text>
  <text x="232" y="800" class="small" text-anchor="middle">Online</text>

  <rect x="385" y="190" width="1105" height="80" rx="8" class="header"/>
  <text x="425" y="223" class="textLight">Fraud Monitoring Overview</text>
  <text x="425" y="250" class="textLight">Dashboard metrics and live transaction scoring</text>
  <rect x="1265" y="210" width="180" height="40" rx="8" fill="#ffffff" stroke="#258a35" stroke-width="2"/>
  <text x="1355" y="236" class="textDark" text-anchor="middle">Refresh Data</text>

  <g id="kpi-cards">
    <rect x="385" y="300" width="245" height="100" rx="8" class="card"/>
    <rect x="385" y="300" width="245" height="34" rx="8" class="accent"/>
    <text x="508" y="324" class="textDark" text-anchor="middle">Total Transactions</text>
    <text x="508" y="370" class="textDark" text-anchor="middle">12,480</text>

    <rect x="660" y="300" width="245" height="100" rx="8" class="card"/>
    <rect x="660" y="300" width="245" height="34" rx="8" class="pink"/>
    <text x="782" y="324" class="textLight" text-anchor="middle">Open Alerts</text>
    <text x="782" y="370" class="textDark" text-anchor="middle">38</text>

    <rect x="935" y="300" width="245" height="100" rx="8" class="card"/>
    <rect x="935" y="300" width="245" height="34" rx="8" class="purple"/>
    <text x="1058" y="324" class="textLight" text-anchor="middle">Average Risk</text>
    <text x="1058" y="370" class="textDark" text-anchor="middle">0.42</text>

    <rect x="1210" y="300" width="280" height="100" rx="8" class="card"/>
    <rect x="1210" y="300" width="280" height="34" rx="8" class="header"/>
    <text x="1350" y="324" class="textLight" text-anchor="middle">Model Status</text>
    <text x="1350" y="370" class="textDark" text-anchor="middle">Loaded</text>
  </g>

  <rect x="385" y="435" width="655" height="260" rx="8" class="card"/>
  <rect x="385" y="435" width="655" height="42" rx="8" class="header"/>
  <text x="712" y="463" class="textLight" text-anchor="middle">Risk Trend Chart</text>
  <line x1="440" y1="640" x2="995" y2="640" class="thin"/>
  <line x1="440" y1="585" x2="995" y2="585" class="thin"/>
  <line x1="440" y1="530" x2="995" y2="530" class="thin"/>
  <polyline points="455,625 520,600 585,610 650,545 715,575 780,520 850,548 925,500 985,515" class="line"/>
  <circle cx="985" cy="515" r="7" class="pink"/>
  <text x="455" y="675" class="muted">X-axis: recent scoring batches</text>

  <rect x="1075" y="435" width="415" height="260" rx="8" class="card"/>
  <rect x="1075" y="435" width="415" height="42" rx="8" class="accent"/>
  <text x="1282" y="463" class="textDark" text-anchor="middle">Recent Alerts</text>
  <rect x="1105" y="505" width="355" height="42" rx="6" class="light"/>
  <text x="1125" y="532" class="small">TX-09218 | risk 0.94 | open</text>
  <rect x="1105" y="565" width="355" height="42" rx="6" class="light"/>
  <text x="1125" y="592" class="small">TX-09177 | risk 0.88 | open</text>
  <rect x="1105" y="625" width="355" height="42" rx="6" class="light"/>
  <text x="1125" y="652" class="small">TX-09102 | risk 0.82 | review</text>

  <rect x="385" y="725" width="1105" height="105" rx="8" class="card"/>
  <rect x="385" y="725" width="220" height="105" rx="8" class="purple"/>
  <text x="495" y="770" class="textLight" text-anchor="middle">Live Scoring</text>
  <text x="495" y="798" class="textLight" text-anchor="middle">Form</text>
  <rect x="635" y="750" width="160" height="34" rx="6" class="light"/>
  <text x="715" y="773" class="small" text-anchor="middle">Account ID</text>
  <rect x="820" y="750" width="160" height="34" rx="6" class="light"/>
  <text x="900" y="773" class="small" text-anchor="middle">Amount</text>
  <rect x="1005" y="750" width="160" height="34" rx="6" class="light"/>
  <text x="1085" y="773" class="small" text-anchor="middle">Device</text>
  <rect x="1190" y="750" width="160" height="34" rx="6" class="light"/>
  <text x="1270" y="773" class="small" text-anchor="middle">Location</text>
  <rect x="1370" y="744" width="90" height="46" rx="8" class="header"/>
  <text x="1415" y="773" class="textLight" text-anchor="middle">Score</text>
</svg>
