<svg xmlns="http://www.w3.org/2000/svg" width="1850" height="1100" viewBox="0 0 1850 1100" role="img" aria-labelledby="title desc">
  <title id="title">Figure 4.4: Backend scoring sequence diagram</title>
  <desc id="desc">A transparent Microsoft Word style sequence diagram showing backend transaction scoring in PayGuard.</desc>
  <defs>
    <marker id="arrow" markerWidth="12" markerHeight="12" refX="10" refY="6" orient="auto">
      <path d="M2 2 L10 6 L2 10 Z" fill="#111111"/>
    </marker>
    <marker id="openArrow" markerWidth="12" markerHeight="12" refX="10" refY="6" orient="auto">
      <path d="M2 2 L10 6 L2 10" fill="none" stroke="#111111" stroke-width="2"/>
    </marker>
    <style>
      .title { fill: #111111; font-family: Calibri, Arial, sans-serif; font-size: 40px; font-weight: 700; }
      .subtitle { fill: #333333; font-family: Calibri, Arial, sans-serif; font-size: 22px; }
      .blue { fill: #f2f2f2; stroke: #111111; stroke-width: 2; }
      .green { fill: #ffffff; stroke: #111111; stroke-width: 2; }
      .orange { fill: #e6e6e6; stroke: #111111; stroke-width: 2; }
      .purple { fill: #f7f7f7; stroke: #111111; stroke-width: 2; }
      .pink { fill: #eeeeee; stroke: #111111; stroke-width: 2; }
      .textLight { fill: #111111; font-family: Calibri, Arial, sans-serif; font-size: 18px; font-weight: 700; }
      .msgText { fill: #111111; font-family: Calibri, Arial, sans-serif; font-size: 16px; font-weight: 600; }
      .life { stroke: #777777; stroke-width: 2; stroke-dasharray: 8 8; }
      .activation { fill: #ffffff; stroke: #111111; stroke-width: 2; }
      .msg { stroke: #111111; stroke-width: 2.35; fill: none; marker-end: url(#arrow); stroke-linecap: round; }
      .return { stroke: #111111; stroke-width: 2.2; fill: none; marker-end: url(#openArrow); stroke-dasharray: 8 6; stroke-linecap: round; }
      .note { fill: #ffffff; stroke: #111111; stroke-width: 2; stroke-dasharray: 8 6; }
    </style>
  </defs>

  <text x="90" y="86" class="title">Backend Scoring Sequence Diagram</text>
  <text x="90" y="124" class="subtitle">Implementation-level scoring flow inside the Flask backend</text>

  <rect x="80" y="185" width="200" height="58" rx="8" class="blue"/>
  <text x="180" y="221" class="textLight" text-anchor="middle">Dashboard</text>

  <rect x="345" y="185" width="210" height="58" rx="8" class="green"/>
  <text x="450" y="221" class="textLight" text-anchor="middle">Flask API</text>

  <rect x="620" y="185" width="210" height="58" rx="8" class="orange"/>
  <text x="725" y="221" class="textLight" text-anchor="middle">Validator</text>

  <rect x="895" y="185" width="230" height="58" rx="8" class="purple"/>
  <text x="1010" y="221" class="textLight" text-anchor="middle">SQLite Database</text>

  <rect x="1190" y="185" width="230" height="58" rx="8" class="pink"/>
  <text x="1305" y="221" class="textLight" text-anchor="middle">FeatureBuilder</text>

  <rect x="1485" y="185" width="230" height="58" rx="8" class="blue"/>
  <text x="1600" y="221" class="textLight" text-anchor="middle">ML Model</text>

  <line x1="180" y1="243" x2="180" y2="965" class="life"/>
  <line x1="450" y1="243" x2="450" y2="965" class="life"/>
  <line x1="725" y1="243" x2="725" y2="965" class="life"/>
  <line x1="1010" y1="243" x2="1010" y2="965" class="life"/>
  <line x1="1305" y1="243" x2="1305" y2="965" class="life"/>
  <line x1="1600" y1="243" x2="1600" y2="965" class="life"/>

  <rect x="441" y="315" width="18" height="560" class="activation"/>
  <rect x="716" y="380" width="18" height="90" class="activation"/>
  <rect x="1001" y="510" width="18" height="250" class="activation"/>
  <rect x="1296" y="595" width="18" height="95" class="activation"/>
  <rect x="1591" y="690" width="18" height="80" class="activation"/>

  <path d="M180 325 H441" class="msg"/>
  <text x="235" y="307" class="msgText">POST /api/score</text>

  <path d="M459 390 H716" class="msg"/>
  <text x="505" y="372" class="msgText">validate JSON and required fields</text>

  <path d="M716 455 H459" class="return"/>
  <text x="530" y="440" class="msgText">valid transaction input</text>

  <path d="M459 525 H1001" class="msg"/>
  <text x="615" y="507" class="msgText">load account history</text>

  <path d="M1001 585 H459" class="return"/>
  <text x="650" y="568" class="msgText">previous transactions</text>

  <path d="M459 635 H1296" class="msg"/>
  <text x="675" y="617" class="msgText">build scoring features</text>

  <path d="M1296 680 H459" class="return"/>
  <text x="725" y="665" class="msgText">feature vector</text>

  <path d="M459 715 H1591" class="msg"/>
  <text x="790" y="697" class="msgText">predict fraud label and probability</text>

  <path d="M1591 770 H459" class="return"/>
  <text x="795" y="755" class="msgText">prediction result</text>

  <path d="M459 815 H1001" class="msg"/>
  <text x="615" y="797" class="msgText">save transaction and alert record</text>

  <path d="M1001 860 H459" class="return"/>
  <text x="670" y="845" class="msgText">transaction_id and alert_id</text>

  <path d="M441 900 H180" class="return"/>
  <text x="235" y="882" class="msgText">risk score, level, reason</text>

  <rect x="1185" y="835" width="440" height="76" rx="8" class="note"/>
  <text x="1405" y="866" class="msgText" text-anchor="middle">If risk score is below threshold, the transaction is still saved</text>
  <text x="1405" y="892" class="msgText" text-anchor="middle">but no open high-risk alert is required.</text>
</svg>
