<svg xmlns="http://www.w3.org/2000/svg" width="1700" height="1000" viewBox="0 0 1700 1000" role="img" aria-labelledby="title desc">
  <title id="title">Figure 4.3: Machine learning pipeline diagram</title>
  <desc id="desc">A transparent Microsoft Word style flow diagram showing the PayGuard machine learning training and model saving pipeline.</desc>
  <defs>
    <marker id="arrow" markerWidth="12" markerHeight="12" refX="10" refY="6" orient="auto">
      <path d="M2 2 L10 6 L2 10 Z" fill="#111827"/>
    </marker>
    <style>
      .title { fill: #111827; font-family: Calibri, Arial, sans-serif; font-size: 40px; font-weight: 700; }
      .subtitle { fill: #4b5563; font-family: Calibri, Arial, sans-serif; font-size: 22px; }
      .startEnd { fill: #1e9bf0; stroke: #0f6fb5; stroke-width: 2; }
      .process { fill: #39b54a; stroke: #258a35; stroke-width: 2; }
      .decision { fill: #f9b21a; stroke: #c8890d; stroke-width: 2; }
      .output { fill: #6b35d8; stroke: #4e22ad; stroke-width: 2; }
      .baseline { fill: #ffffff; stroke: #1e9bf0; stroke-width: 2; }
      .textLight { fill: #ffffff; font-family: Calibri, Arial, sans-serif; font-size: 20px; font-weight: 700; }
      .textDark { fill: #111827; font-family: Calibri, Arial, sans-serif; font-size: 18px; font-weight: 700; }
      .small { fill: #111827; font-family: Calibri, Arial, sans-serif; font-size: 17px; font-weight: 600; }
      .line { stroke: #111827; stroke-width: 2.4; fill: none; marker-end: url(#arrow); stroke-linecap: round; stroke-linejoin: round; }
      .dash { stroke: #111827; stroke-width: 2.2; fill: none; marker-end: url(#arrow); stroke-dasharray: 8 6; stroke-linecap: round; stroke-linejoin: round; }
    </style>
  </defs>

  <text x="90" y="86" class="title">Machine Learning Pipeline Diagram</text>
  <text x="90" y="124" class="subtitle">Training, comparing and saving the fraud detection model used by PayGuard</text>

  <circle cx="170" cy="475" r="42" class="startEnd"/>
  <text x="170" y="483" class="textLight" text-anchor="middle">Start</text>

  <path d="M300 425 L565 425 L540 525 L275 525 Z" class="output"/>
  <text x="420" y="463" class="textLight" text-anchor="middle">Load synthetic</text>
  <text x="420" y="490" class="textLight" text-anchor="middle">transaction dataset</text>

  <rect x="675" y="430" width="300" height="90" rx="9" class="process"/>
  <text x="825" y="465" class="textLight" text-anchor="middle">Clean data and</text>
  <text x="825" y="492" class="textLight" text-anchor="middle">build features</text>

  <rect x="1085" y="430" width="300" height="90" rx="9" class="process"/>
  <text x="1235" y="465" class="textLight" text-anchor="middle">Split into training</text>
  <text x="1235" y="492" class="textLight" text-anchor="middle">and test sets</text>

  <rect x="705" y="235" width="300" height="86" rx="9" class="baseline"/>
  <text x="855" y="270" class="textDark" text-anchor="middle">Train logistic</text>
  <text x="855" y="297" class="textDark" text-anchor="middle">regression baseline</text>

  <rect x="705" y="650" width="300" height="86" rx="9" class="process"/>
  <text x="855" y="685" class="textLight" text-anchor="middle">Train random</text>
  <text x="855" y="712" class="textLight" text-anchor="middle">forest model</text>

  <polygon points="1235,615 1405,700 1235,785 1065,700" class="decision"/>
  <text x="1235" y="693" class="textDark" text-anchor="middle">Best model</text>
  <text x="1235" y="720" class="textDark" text-anchor="middle">selected?</text>

  <path d="M1415 630 L1610 630 L1585 720 L1390 720 Z" class="output"/>
  <text x="1500" y="665" class="textLight" text-anchor="middle">Save model and</text>
  <text x="1500" y="692" class="textLight" text-anchor="middle">metrics report</text>

  <circle cx="1500" cy="835" r="42" class="startEnd"/>
  <text x="1500" y="843" class="textLight" text-anchor="middle">End</text>

  <path d="M212 475 H278" class="line"/>
  <path d="M565 475 H665" class="line"/>
  <path d="M975 475 H1075" class="line"/>

  <path d="M1235 430 C1180 330 1070 290 1015 278" class="dash"/>
  <text x="1110" y="335" class="small">baseline branch</text>

  <path d="M1235 520 C1175 610 1070 675 1015 693" class="line"/>
  <text x="1110" y="615" class="small">main model branch</text>

  <path d="M1005 278 C1140 305 1250 440 1240 605" class="dash"/>
  <text x="1190" y="365" class="small">compare metrics</text>

  <path d="M1005 693 H1055" class="line"/>
  <path d="M1405 700 H1382" class="line"/>
  <path d="M1405 700 H1380 C1360 700 1350 700 1342 700" class="line"/>
  <path d="M1405 700 H1380" class="line"/>
  <path d="M1405 700 H1380" class="line"/>
  <path d="M1405 700 H1380" class="line"/>
  <path d="M1405 700 H1390" class="line"/>
  <text x="1360" y="680" class="small">Yes</text>
  <path d="M1500 720 V793" class="line"/>
</svg>
