<svg xmlns="http://www.w3.org/2000/svg" width="1600" height="900" viewBox="0 0 1600 900" role="img" aria-labelledby="title desc">
  <title id="title">Figure 3.12: State chart diagram</title>
  <desc id="desc">A transparent Microsoft Word style state chart diagram showing the lifecycle of a PayGuard alert.</desc>
  <defs>
    <marker id="arrow" markerWidth="12" markerHeight="12" refX="10" refY="6" orient="auto">
      <path d="M2 2 L10 6 L2 10 Z" fill="#111111"/>
    </marker>
    <style>
      .title { fill: #111111; font-family: Calibri, Arial, sans-serif; font-size: 40px; font-weight: 700; }
      .subtitle { fill: #333333; font-family: Calibri, Arial, sans-serif; font-size: 22px; }
      .start { fill: #111111; }
      .endOuter { fill: #ffffff; stroke: #111111; stroke-width: 4; }
      .endInner { fill: #111111; }
      .stateBlue { fill: #f2f2f2; stroke: #111111; stroke-width: 2; }
      .stateGreen { fill: #ffffff; stroke: #111111; stroke-width: 2; }
      .stateOrange { fill: #e6e6e6; stroke: #111111; stroke-width: 2; }
      .statePurple { fill: #f7f7f7; stroke: #111111; stroke-width: 2; }
      .note { fill: #ffffff; stroke: #111111; stroke-width: 2; stroke-dasharray: 8 6; }
      .textLight { fill: #111111; font-family: Calibri, Arial, sans-serif; font-size: 23px; font-weight: 700; }
      .textDark { fill: #111111; font-family: Calibri, Arial, sans-serif; font-size: 19px; font-weight: 700; }
      .small { fill: #111111; font-family: Calibri, Arial, sans-serif; font-size: 17px; font-weight: 600; }
      .line { stroke: #111111; stroke-width: 2.5; fill: none; marker-end: url(#arrow); stroke-linecap: round; stroke-linejoin: round; }
    </style>
  </defs>

  <text x="90" y="86" class="title">PayGuard Alert State Chart Diagram</text>
  <text x="90" y="124" class="subtitle">State transitions followed by an alert after a transaction is scored</text>

  <circle cx="170" cy="450" r="22" class="start"/>

  <rect x="285" y="385" width="250" height="130" rx="35" class="stateBlue"/>
  <text x="410" y="435" class="textLight" text-anchor="middle">Created</text>
  <text x="410" y="466" class="textLight" text-anchor="middle">Alert</text>

  <rect x="670" y="385" width="250" height="130" rx="35" class="stateGreen"/>
  <text x="795" y="435" class="textLight" text-anchor="middle">Open</text>
  <text x="795" y="466" class="textLight" text-anchor="middle">for Review</text>

  <rect x="1065" y="250" width="250" height="130" rx="35" class="statePurple"/>
  <text x="1190" y="300" class="textLight" text-anchor="middle">Resolved</text>
  <text x="1190" y="331" class="textLight" text-anchor="middle">after Review</text>

  <rect x="1065" y="545" width="250" height="130" rx="35" class="stateOrange"/>
  <text x="1190" y="595" class="textLight" text-anchor="middle">Closed</text>
  <text x="1190" y="626" class="textLight" text-anchor="middle">or Dismissed</text>

  <circle cx="1460" cy="450" r="28" class="endOuter"/>
  <circle cx="1460" cy="450" r="16" class="endInner"/>

  <path d="M192 450 H275" class="line"/>
  <text x="210" y="430" class="small">risk threshold met</text>

  <path d="M535 450 H660" class="line"/>
  <text x="560" y="430" class="small">alert saved</text>

  <path d="M920 450 C1000 430 1020 340 1055 315" class="line"/>
  <text x="955" y="360" class="small">review confirms action</text>

  <path d="M920 450 C1000 475 1025 575 1055 610" class="line"/>
  <text x="952" y="560" class="small">dismiss or close</text>

  <path d="M1315 315 C1380 330 1425 385 1448 425" class="line"/>
  <text x="1330" y="300" class="small">status saved</text>

  <path d="M1315 610 C1380 590 1425 515 1448 475" class="line"/>
  <text x="1330" y="640" class="small">status saved</text>

  <path d="M795 515 C795 610 675 645 575 580 C510 538 540 485 670 470" class="line"/>
  <text x="615" y="640" class="small">needs more investigation</text>

  <rect x="560" y="720" width="500" height="78" rx="8" class="note"/>
  <text x="810" y="752" class="textDark" text-anchor="middle">State rule</text>
  <text x="810" y="780" class="small" text-anchor="middle">Only open alerts require user review; resolved and closed alerts are terminal review outcomes.</text>
</svg>
