<svg xmlns="http://www.w3.org/2000/svg" width="1600" height="950" viewBox="0 0 1600 950" role="img" aria-labelledby="title desc">
  <title id="title">Figure 4.5: Database relationship diagram</title>
  <desc id="desc">A transparent Microsoft Word style database relationship diagram for the PayGuard SQLite schema.</desc>
  <defs>
    <marker id="arrow" viewBox="0 0 10 10" refX="9" refY="5" markerWidth="8" markerHeight="8" orient="auto-start-reverse">
      <path d="M 0 0 L 10 5 L 0 10 z" fill="#111111"/>
    </marker>
    <style>
      .title { fill: #111111; font-family: Calibri, Arial, sans-serif; font-size: 40px; font-weight: 700; }
      .subtitle { fill: #333333; font-family: Calibri, Arial, sans-serif; font-size: 22px; }
      .table { fill: #ffffff; stroke: #111111; stroke-width: 2.4; }
      .blue { fill: #eaf2ff; stroke: none; }
      .green { fill: #eaf7ee; stroke: none; }
      .purple { fill: #eef2ff; stroke: none; }
      .note { fill: #ffffff; stroke: #111111; stroke-width: 2; stroke-dasharray: 8 6; }
      .textLight { fill: #111111; font-family: Calibri, Arial, sans-serif; font-size: 22px; font-weight: 700; }
      .field { fill: #111111; font-family: Calibri, Arial, sans-serif; font-size: 18px; font-weight: 600; }
      .small { fill: #111111; font-family: Calibri, Arial, sans-serif; font-size: 17px; font-weight: 600; }
      .rel { stroke: #111111; stroke-width: 2.8; fill: none; stroke-linecap: round; stroke-linejoin: round; }
      .sep { stroke: #d0d0d0; stroke-width: 1.5; }
    </style>
  </defs>

  <text x="90" y="86" class="title">PayGuard Database Relationship Diagram</text>
  <text x="90" y="124" class="subtitle">Physical SQLite tables used to store transactions, alerts and model training metadata</text>

  <g id="transactions">
    <rect x="105" y="205" width="430" height="500" rx="8" class="table"/>
    <rect x="105" y="205" width="430" height="58" rx="8" class="blue"/>
    <text x="320" y="243" class="textLight" text-anchor="middle">transactions</text>
    <text x="135" y="305" class="field">PK id</text>
    <text x="135" y="358" class="field">account_id</text>
    <text x="135" y="393" class="field">transaction_type</text>
    <text x="135" y="428" class="field">amount, currency</text>
    <text x="135" y="463" class="field">device_id, location</text>
    <text x="135" y="498" class="field">created_at</text>
    <text x="135" y="533" class="field">is_fraud</text>
    <text x="135" y="568" class="field">fraud_score</text>
    <text x="135" y="603" class="field">metadata_json</text>
    <text x="135" y="638" class="field">inserted_at</text>
  </g>

  <g id="alerts">
    <rect x="1035" y="250" width="430" height="380" rx="8" class="table"/>
    <rect x="1035" y="250" width="430" height="58" rx="8" class="green"/>
    <text x="1250" y="288" class="textLight" text-anchor="middle">alerts</text>
    <text x="1065" y="350" class="field">PK id</text>
    <text x="1065" y="403" class="field">FK transaction_id</text>
    <text x="1065" y="438" class="field">risk_score</text>
    <text x="1065" y="473" class="field">alert_type</text>
    <text x="1065" y="508" class="field">reason</text>
    <text x="1065" y="543" class="field">status</text>
    <text x="1065" y="578" class="field">created_at, resolved_at</text>
  </g>

  <g id="model-runs">
    <rect x="585" y="735" width="430" height="150" rx="8" class="table"/>
    <rect x="585" y="735" width="430" height="58" rx="8" class="purple"/>
    <text x="800" y="773" class="textLight" text-anchor="middle">model_runs</text>
    <text x="615" y="835" class="field">PK id</text>
    <text x="615" y="882" class="field">model_name, version, metrics_json, notes</text>
  </g>

  <path d="M535 455 H1035" class="rel"/>
  <text x="590" y="433" class="small">one transaction</text>
  <text x="845" y="433" class="small">zero or many alerts</text>
  <text x="650" y="492" class="small">alerts.transaction_id references transactions.id</text>

  <line x1="560" y1="432" x2="560" y2="478" class="rel"/>
  <line x1="1010" y1="432" x2="1035" y2="455" class="rel"/>
  <line x1="1010" y1="478" x2="1035" y2="455" class="rel"/>
  <line x1="1010" y1="425" x2="1010" y2="485" class="rel"/>

  <rect x="590" y="205" width="380" height="96" rx="8" class="note"/>
  <text x="780" y="242" class="small" text-anchor="middle">Account profiles are not stored as a table.</text>
  <text x="780" y="270" class="small" text-anchor="middle">They are calculated from transactions and alerts.</text>

  <path d="M535 345 C610 310 670 285 735 300" class="rel" stroke-dasharray="8 6"/>
  <path d="M1035 385 C945 330 865 310 805 300" class="rel" stroke-dasharray="8 6"/>

  <path d="M930 735 C1080 700 1250 680 1250 630" class="rel" stroke-dasharray="8 6" marker-end="url(#arrow)"/>
  <text x="710" y="695" class="small">model run metadata supports fraud scoring</text>
</svg>
