<svg xmlns="http://www.w3.org/2000/svg" width="1700" height="1050" viewBox="0 0 1700 1050" role="img" aria-labelledby="title desc">
  <title id="title">Figure 3.13: Transaction scoring flowchart</title>
  <desc id="desc">A transparent Microsoft Word style flowchart showing how PayGuard scores a transaction and creates an alert when necessary.</desc>
  <defs>
    <marker id="arrow" markerWidth="12" markerHeight="12" refX="10" refY="6" orient="auto">
      <path d="M2 2 L10 6 L2 10 Z" fill="#111111"/>
    </marker>
    <style>
      .title { fill: #111111; font-family: Calibri, Arial, sans-serif; font-size: 40px; font-weight: 700; }
      .subtitle { fill: #333333; font-family: Calibri, Arial, sans-serif; font-size: 22px; }
      .startEnd { fill: #eaf2ff; stroke: #111111; stroke-width: 2; }
      .process { fill: #eaf7ee; stroke: #111111; stroke-width: 2; }
      .decision { fill: #fff2cc; stroke: #111111; stroke-width: 2; }
      .error { fill: #ffffff; stroke: #111111; stroke-width: 2; stroke-dasharray: 8 6; }
      .output { fill: #eef2ff; stroke: #111111; stroke-width: 2; }
      .textLight { fill: #111111; font-family: Calibri, Arial, sans-serif; font-size: 19px; font-weight: 700; }
      .textDark { fill: #111111; font-family: Calibri, Arial, sans-serif; font-size: 18px; font-weight: 700; }
      .small { fill: #111111; font-family: Calibri, Arial, sans-serif; font-size: 17px; font-weight: 600; }
      .line { stroke: #111111; stroke-width: 2.4; fill: none; marker-end: url(#arrow); stroke-linecap: round; stroke-linejoin: round; }
      .dash { stroke: #111111; stroke-width: 2.4; fill: none; marker-end: url(#arrow); stroke-dasharray: 8 6; stroke-linecap: round; stroke-linejoin: round; }
    </style>
  </defs>

  <text x="90" y="86" class="title">Transaction Scoring Flowchart</text>
  <text x="90" y="124" class="subtitle">Main decision path followed when PayGuard receives a transaction for fraud scoring</text>

  <circle cx="850" cy="190" r="42" class="startEnd"/>
  <text x="850" y="198" class="textLight" text-anchor="middle">Start</text>

  <rect x="675" y="270" width="350" height="72" rx="9" class="process"/>
  <text x="850" y="300" class="textLight" text-anchor="middle">Receive transaction</text>
  <text x="850" y="326" class="textLight" text-anchor="middle">details from dashboard</text>

  <polygon points="850,390 1020,475 850,560 680,475" class="decision"/>
  <text x="850" y="468" class="textDark" text-anchor="middle">Is input</text>
  <text x="850" y="494" class="textDark" text-anchor="middle">valid?</text>

  <rect x="1135" y="440" width="305" height="72" rx="9" class="error"/>
  <text x="1288" y="470" class="textDark" text-anchor="middle">Return validation</text>
  <text x="1288" y="496" class="textDark" text-anchor="middle">error to user</text>

  <rect x="675" y="620" width="350" height="72" rx="9" class="process"/>
  <text x="850" y="650" class="textLight" text-anchor="middle">Retrieve account history</text>
  <text x="850" y="676" class="textLight" text-anchor="middle">from transaction records</text>

  <rect x="675" y="740" width="350" height="72" rx="9" class="process"/>
  <text x="850" y="770" class="textLight" text-anchor="middle">Build model features</text>
  <text x="850" y="796" class="textLight" text-anchor="middle">using transaction history</text>

  <rect x="245" y="740" width="340" height="72" rx="9" class="process"/>
  <text x="415" y="770" class="textLight" text-anchor="middle">Run trained fraud</text>
  <text x="415" y="796" class="textLight" text-anchor="middle">detection model</text>

  <rect x="245" y="620" width="340" height="72" rx="9" class="process"/>
  <text x="415" y="650" class="textLight" text-anchor="middle">Calculate risk level</text>
  <text x="415" y="676" class="textLight" text-anchor="middle">and explanation reason</text>

  <polygon points="415,390 585,475 415,560 245,475" class="decision"/>
  <text x="415" y="468" class="textDark" text-anchor="middle">Alert</text>
  <text x="415" y="494" class="textDark" text-anchor="middle">required?</text>

  <rect x="245" y="270" width="340" height="72" rx="9" class="process"/>
  <text x="415" y="300" class="textLight" text-anchor="middle">Create alert record</text>
  <text x="415" y="326" class="textLight" text-anchor="middle">for review</text>

  <path d="M1125 735 L1460 735 L1435 815 L1100 815 Z" class="output"/>
  <text x="1280" y="770" class="textLight" text-anchor="middle">Save transaction</text>
  <text x="1280" y="796" class="textLight" text-anchor="middle">and response data</text>

  <path d="M1125 590 L1460 590 L1435 670 L1100 670 Z" class="output"/>
  <text x="1280" y="625" class="textLight" text-anchor="middle">Return risk score,</text>
  <text x="1280" y="651" class="textLight" text-anchor="middle">level and reason</text>

  <circle cx="1280" cy="475" r="42" class="startEnd"/>
  <text x="1280" y="483" class="textLight" text-anchor="middle">End</text>

  <path d="M850 232 V260" class="line"/>
  <path d="M850 342 V380" class="line"/>

  <path d="M1020 475 H1125" class="dash"/>
  <text x="1050" y="455" class="small">No</text>
  <path d="M1288 512 V433 C1288 430 1285 430 1280 433" class="dash"/>

  <path d="M850 560 V610" class="line"/>
  <text x="870" y="588" class="small">Yes</text>
  <path d="M850 692 V730" class="line"/>
  <path d="M675 776 H595" class="line"/>
  <path d="M415 740 V702" class="line"/>
  <path d="M415 620 V570" class="line"/>

  <path d="M415 390 V352" class="line"/>
  <text x="435" y="371" class="small">Yes</text>
  <path d="M585 475 C780 475 940 685 1105 760" class="line"/>
  <text x="620" y="455" class="small">No</text>

  <path d="M585 306 C800 310 980 690 1105 770" class="line"/>
  <path d="M1460 775 C1515 775 1515 630 1460 630" class="line"/>
  <path d="M1280 590 V525" class="line"/>
</svg>
