<svg xmlns="http://www.w3.org/2000/svg" width="1600" height="900" viewBox="0 0 1600 900" role="img" aria-labelledby="title desc">
  <title id="title">Figure 2.1: Gantt chart</title>
  <desc id="desc">A transparent Microsoft Word style Gantt chart showing PayGuard project activities across thirteen weeks.</desc>
  <defs>
    <style>
      .title { fill: #111111; font-family: Calibri, Arial, sans-serif; font-size: 40px; font-weight: 700; }
      .subtitle { fill: #333333; font-family: Calibri, Arial, sans-serif; font-size: 22px; }
      .label { fill: #111111; font-family: Calibri, Arial, sans-serif; font-size: 21px; font-weight: 600; }
      .small { fill: #111111; font-family: Calibri, Arial, sans-serif; font-size: 18px; font-weight: 600; }
      .bartext { fill: #111111; font-family: Calibri, Arial, sans-serif; font-size: 17px; font-weight: 700; }
      .grid { stroke: #d0d0d0; stroke-width: 1.5; }
      .axis { stroke: #111111; stroke-width: 2; }
      .green { fill: #ffffff; }
      .blue { fill: #f2f2f2;  stroke: #111111; stroke-width: 2; }
      .orange { fill: #e6e6e6;  stroke: #111111; stroke-width: 2; }
      .purple { fill: #f7f7f7;  stroke: #111111; stroke-width: 2; }
      .pink { fill: #eeeeee;  stroke: #111111; stroke-width: 2; }
    </style>
  </defs>

  <text x="90" y="86" class="title">PayGuard Project Gantt Chart</text>
  <text x="90" y="124" class="subtitle">Planned implementation schedule across thirteen project weeks</text>

  <g transform="translate(90 180)">
    <rect x="0" y="0" width="1420" height="58" rx="8" class="blue"/>
    <text x="24" y="37" fill="#ffffff" font-family="Calibri, Arial, sans-serif" font-size="22" font-weight="700">Activity</text>

    <g fill="#ffffff" font-family="Calibri, Arial, sans-serif" font-size="18" font-weight="700" text-anchor="middle">
      <text x="388" y="37">W1</text>
      <text x="466" y="37">W2</text>
      <text x="544" y="37">W3</text>
      <text x="622" y="37">W4</text>
      <text x="700" y="37">W5</text>
      <text x="778" y="37">W6</text>
      <text x="856" y="37">W7</text>
      <text x="934" y="37">W8</text>
      <text x="1012" y="37">W9</text>
      <text x="1090" y="37">W10</text>
      <text x="1168" y="37">W11</text>
      <text x="1246" y="37">W12</text>
      <text x="1324" y="37">W13</text>
    </g>

    <line x1="0" y1="58" x2="1420" y2="58" class="axis"/>
    <line x1="342" y1="0" x2="342" y2="566" class="axis"/>

    <g class="grid">
      <line x1="381" y1="58" x2="381" y2="566"/>
      <line x1="459" y1="58" x2="459" y2="566"/>
      <line x1="537" y1="58" x2="537" y2="566"/>
      <line x1="615" y1="58" x2="615" y2="566"/>
      <line x1="693" y1="58" x2="693" y2="566"/>
      <line x1="771" y1="58" x2="771" y2="566"/>
      <line x1="849" y1="58" x2="849" y2="566"/>
      <line x1="927" y1="58" x2="927" y2="566"/>
      <line x1="1005" y1="58" x2="1005" y2="566"/>
      <line x1="1083" y1="58" x2="1083" y2="566"/>
      <line x1="1161" y1="58" x2="1161" y2="566"/>
      <line x1="1239" y1="58" x2="1239" y2="566"/>
      <line x1="1317" y1="58" x2="1317" y2="566"/>
      <line x1="1395" y1="58" x2="1395" y2="566"/>
    </g>

    <g class="grid">
      <line x1="0" y1="122" x2="1420" y2="122"/>
      <line x1="0" y1="186" x2="1420" y2="186"/>
      <line x1="0" y1="250" x2="1420" y2="250"/>
      <line x1="0" y1="314" x2="1420" y2="314"/>
      <line x1="0" y1="378" x2="1420" y2="378"/>
      <line x1="0" y1="442" x2="1420" y2="442"/>
      <line x1="0" y1="506" x2="1420" y2="506"/>
      <line x1="0" y1="566" x2="1420" y2="566"/>
    </g>

    <g class="label">
      <text x="24" y="100">Research and literature review</text>
      <text x="24" y="164">Requirements and design</text>
      <text x="24" y="228">Synthetic data generation</text>
      <text x="24" y="292">Feature engineering and model training</text>
      <text x="24" y="356">Backend API development</text>
      <text x="24" y="420">Frontend dashboard development</text>
      <text x="24" y="484">Testing</text>
      <text x="24" y="548">Final documentation</text>
    </g>

    <g>
      <rect x="358" y="77" width="148" height="34" rx="6" class="green"/>
      <rect x="514" y="141" width="148" height="34" rx="6" class="green"/>
      <rect x="670" y="205" width="70" height="34" rx="6" class="orange"/>
      <rect x="748" y="269" width="148" height="34" rx="6" class="green"/>
      <rect x="826" y="333" width="148" height="34" rx="6" class="green"/>
      <rect x="904" y="397" width="148" height="34" rx="6" class="green"/>
      <rect x="1060" y="461" width="148" height="34" rx="6" class="purple"/>
      <rect x="1138" y="525" width="226" height="34" rx="6" class="pink"/>
    </g>

    <g text-anchor="middle" class="bartext">
      <text x="432" y="100">2 weeks</text>
      <text x="588" y="164">2 weeks</text>
      <text x="705" y="228">1 week</text>
      <text x="822" y="292">2 weeks</text>
      <text x="900" y="356">2 weeks</text>
      <text x="978" y="420">2 weeks</text>
      <text x="1134" y="484">2 weeks</text>
      <text x="1251" y="548">3 weeks</text>
    </g>

    <g transform="translate(0 630)">
      <circle cx="16" cy="0" r="8" class="green"/>
      <text x="34" y="6" class="small">Development task</text>
      <circle cx="230" cy="0" r="8" class="orange"/>
      <text x="248" y="6" class="small">Data preparation</text>
      <circle cx="470" cy="0" r="8" class="purple"/>
      <text x="488" y="6" class="small">Testing</text>
      <circle cx="630" cy="0" r="8" class="pink"/>
      <text x="648" y="6" class="small">Documentation</text>
    </g>
  </g>
</svg>
