<svg xmlns="http://www.w3.org/2000/svg" width="1700" height="1000" viewBox="0 0 1700 1000" role="img" aria-labelledby="title desc">
  <title id="title">Figure 4.12: Deployment diagram</title>
  <desc id="desc">A transparent Microsoft Word style deployment diagram showing local PayGuard frontend, backend, database, model and dataset components.</desc>
  <defs>
    <marker id="arrow" markerWidth="12" markerHeight="12" refX="10" refY="6" orient="auto"><path d="M2 2 L10 6 L2 10 Z" fill="#111827"/></marker>
    <style>
      .title{fill:#111827;font-family:Calibri,Arial,sans-serif;font-size:40px;font-weight:700}.subtitle{fill:#4b5563;font-family:Calibri,Arial,sans-serif;font-size:22px}.node{fill:#fff;stroke:#111827;stroke-width:2.4}.blue{fill:#1e9bf0;stroke:#0f6fb5;stroke-width:2}.green{fill:#39b54a;stroke:#258a35;stroke-width:2}.orange{fill:#f9b21a;stroke:#c8890d;stroke-width:2}.purple{fill:#6b35d8;stroke:#4e22ad;stroke-width:2}.pink{fill:#e92b8b;stroke:#b91c6b;stroke-width:2}.textLight{fill:#fff;font-family:Calibri,Arial,sans-serif;font-size:21px;font-weight:700}.textDark{fill:#111827;font-family:Calibri,Arial,sans-serif;font-size:20px;font-weight:700}.small{fill:#111827;font-family:Calibri,Arial,sans-serif;font-size:17px;font-weight:600}.line{stroke:#111827;stroke-width:2.5;fill:none;marker-end:url(#arrow);stroke-linecap:round;stroke-linejoin:round}.dash{stroke:#111827;stroke-width:2.3;fill:none;marker-end:url(#arrow);stroke-dasharray:8 6;stroke-linecap:round;stroke-linejoin:round}
    </style>
  </defs>
  <text x="90" y="86" class="title">PayGuard Deployment Diagram</text>
  <text x="90" y="124" class="subtitle">Local development deployment used to run and demonstrate the prototype</text>
  <rect x="90" y="180" width="1520" height="700" rx="10" class="node"/>
  <text x="850" y="225" class="textDark" text-anchor="middle">Developer Machine</text>
  <rect x="160" y="310" width="300" height="150" rx="12" class="blue"/>
  <text x="310" y="360" class="textLight" text-anchor="middle">Web Browser</text>
  <text x="310" y="392" class="textLight" text-anchor="middle">PayGuard Dashboard</text>
  <text x="310" y="424" class="textLight" text-anchor="middle">localhost:5173</text>
  <rect x="700" y="310" width="300" height="150" rx="12" class="green"/>
  <text x="850" y="360" class="textLight" text-anchor="middle">Flask Backend</text>
  <text x="850" y="392" class="textLight" text-anchor="middle">REST API Routes</text>
  <text x="850" y="424" class="textLight" text-anchor="middle">localhost:5000</text>
  <rect x="1240" y="270" width="300" height="120" rx="12" class="orange"/>
  <text x="1390" y="314" class="textDark" text-anchor="middle">SQLite Database</text>
  <text x="1390" y="346" class="textDark" text-anchor="middle">data/payguard.db</text>
  <rect x="1240" y="470" width="300" height="120" rx="12" class="purple"/>
  <text x="1390" y="514" class="textLight" text-anchor="middle">Saved ML Model</text>
  <text x="1390" y="546" class="textLight" text-anchor="middle">models/*.joblib</text>
  <rect x="700" y="665" width="300" height="120" rx="12" class="pink"/>
  <text x="850" y="709" class="textLight" text-anchor="middle">Synthetic Dataset</text>
  <text x="850" y="741" class="textLight" text-anchor="middle">data/*.csv</text>
  <path d="M460 385 H690" class="line"/>
  <text x="520" y="365" class="small">HTTP /api requests</text>
  <path d="M1000 365 C1100 330 1160 325 1230 330" class="line"/>
  <text x="1050" y="315" class="small">read and write records</text>
  <path d="M1000 420 C1095 480 1165 515 1230 530" class="line"/>
  <text x="1045" y="495" class="small">load model for scoring</text>
  <path d="M850 665 V470" class="dash"/>
  <text x="870" y="590" class="small">seed database and train model</text>
  <path d="M1000 725 C1130 705 1210 620 1260 590" class="dash"/>
  <text x="1080" y="690" class="small">training input</text>
  <rect x="205" y="785" width="420" height="52" rx="8" fill="#ffffff" stroke="#111827" stroke-width="2"/>
  <text x="415" y="818" class="small" text-anchor="middle">Prototype deployment: simple local stack for demonstration and testing.</text>
</svg>
