<svg xmlns="http://www.w3.org/2000/svg" width="1700" height="1000" viewBox="0 0 1700 1000" role="img" aria-labelledby="title desc">
  <title id="title">Figure 4.1: System architecture diagram</title>
  <desc id="desc">A transparent Microsoft Word style system architecture diagram showing PayGuard frontend, backend, database, model and data generation layers.</desc>
  <defs>
    <marker id="arrow" markerWidth="12" markerHeight="12" refX="10" refY="6" orient="auto">
      <path d="M2 2 L10 6 L2 10 Z" fill="#111111"/>
    </marker>
    <style>
      .title { fill: #111111; font-family: Calibri, Arial, sans-serif; font-size: 40px; font-weight: 700; }
      .subtitle { fill: #333333; font-family: Calibri, Arial, sans-serif; font-size: 22px; }
      .layer { fill: #ffffff; stroke: #111111; stroke-width: 2.4; }
      .blue { fill: #f2f2f2; stroke: #111111; stroke-width: 2; }
      .green { fill: #ffffff; stroke: #111111; stroke-width: 2; }
      .orange { fill: #e6e6e6; stroke: #111111; stroke-width: 2; }
      .purple { fill: #f7f7f7; stroke: #111111; stroke-width: 2; }
      .pink { fill: #eeeeee; stroke: #111111; stroke-width: 2; }
      .textLight { fill: #111111; font-family: Calibri, Arial, sans-serif; font-size: 21px; font-weight: 700; }
      .textDark { fill: #111111; font-family: Calibri, Arial, sans-serif; font-size: 20px; font-weight: 700; }
      .small { fill: #111111; font-family: Calibri, Arial, sans-serif; font-size: 17px; font-weight: 600; }
      .line { stroke: #111111; stroke-width: 2.5; fill: none; marker-end: url(#arrow); stroke-linecap: round; stroke-linejoin: round; }
      .dash { stroke: #111111; stroke-width: 2.3; fill: none; marker-end: url(#arrow); stroke-dasharray: 8 6; stroke-linecap: round; stroke-linejoin: round; }
    </style>
  </defs>

  <text x="90" y="86" class="title">PayGuard System Architecture Diagram</text>
  <text x="90" y="124" class="subtitle">Layered prototype architecture for mobile money fraud monitoring</text>

  <rect x="90" y="180" width="1520" height="700" rx="10" class="layer"/>

  <rect x="155" y="250" width="305" height="140" rx="12" class="blue"/>
  <text x="307" y="302" class="textLight" text-anchor="middle">Presentation Layer</text>
  <text x="307" y="334" class="textLight" text-anchor="middle">React Dashboard</text>
  <text x="307" y="362" class="textLight" text-anchor="middle">Vite, TypeScript, Tailwind</text>

  <rect x="700" y="250" width="305" height="140" rx="12" class="green"/>
  <text x="852" y="302" class="textLight" text-anchor="middle">API Layer</text>
  <text x="852" y="334" class="textLight" text-anchor="middle">Flask Backend</text>
  <text x="852" y="362" class="textLight" text-anchor="middle">Validation and JSON Routes</text>

  <rect x="1245" y="250" width="305" height="140" rx="12" class="orange"/>
  <text x="1397" y="302" class="textDark" text-anchor="middle">Data Layer</text>
  <text x="1397" y="334" class="textDark" text-anchor="middle">SQLite Database</text>
  <text x="1397" y="362" class="textDark" text-anchor="middle">Transactions, Alerts, Runs</text>

  <rect x="420" y="570" width="305" height="140" rx="12" class="purple"/>
  <text x="572" y="622" class="textLight" text-anchor="middle">Machine Learning Layer</text>
  <text x="572" y="654" class="textLight" text-anchor="middle">Feature Builder</text>
  <text x="572" y="682" class="textLight" text-anchor="middle">Fraud Model and Scorer</text>

  <rect x="975" y="570" width="305" height="140" rx="12" class="pink"/>
  <text x="1127" y="622" class="textLight" text-anchor="middle">Data Generation Layer</text>
  <text x="1127" y="654" class="textLight" text-anchor="middle">Synthetic Transactions</text>
  <text x="1127" y="682" class="textLight" text-anchor="middle">Training Dataset</text>

  <path d="M460 320 H690" class="line"/>
  <text x="515" y="300" class="small">HTTP API requests</text>

  <path d="M1005 320 H1235" class="line"/>
  <text x="1060" y="300" class="small">read and write records</text>

  <path d="M852 390 C825 470 710 520 610 560" class="line"/>
  <text x="640" y="485" class="small">build features and score</text>

  <path d="M725 640 C850 640 910 640 965 640" class="dash"/>
  <text x="785" y="620" class="small">training data and model artefacts</text>

  <path d="M1127 570 C1165 480 1250 420 1350 390" class="dash"/>
  <text x="1175" y="485" class="small">seed database from generated CSV</text>

  <path d="M420 640 C285 600 220 505 265 400" class="line"/>
  <text x="195" y="548" class="small">risk results shown</text>

  <rect x="180" y="775" width="1320" height="48" rx="8" fill="#ffffff" stroke="#111111" stroke-width="2"/>
  <text x="840" y="806" class="small" text-anchor="middle">Architecture principle: separate frontend display, backend control logic, persistent storage, synthetic data generation and machine learning scoring.</text>
</svg>
