<svg xmlns="http://www.w3.org/2000/svg" width="1600" height="900" viewBox="0 0 1600 900" role="img" aria-labelledby="title desc">
  <title id="title">Figure 2.1: Gantt chart</title>
  <desc id="desc">A clean Gantt chart showing the PayGuard project activities across thirteen weeks.</desc>
  <defs>
    <pattern id="dot-grid" width="24" height="24" patternUnits="userSpaceOnUse">
      <circle cx="2" cy="2" r="1.4" fill="#d8d8d8" opacity="0.72" />
    </pattern>
    <filter id="card-shadow" x="-10%" y="-10%" width="120%" height="130%">
      <feDropShadow dx="0" dy="16" stdDeviation="18" flood-color="#111111" flood-opacity="0.08" />
    </filter>
  </defs>

  <rect width="1600" height="900" fill="#f2f3f1" />
  <rect width="1600" height="900" fill="url(#dot-grid)" opacity="0.95" />

  <g font-family="Inter, Arial, sans-serif">
    <text x="110" y="92" font-size="34" font-weight="800" fill="#101010">PayGuard Project Gantt Chart</text>
    <text x="110" y="126" font-size="18" font-weight="500" fill="#6a6a6a">Planned implementation schedule across 13 project weeks</text>

    <g filter="url(#card-shadow)">
      <rect x="86" y="170" width="1428" height="610" rx="28" fill="#ffffff" />
      <rect x="86" y="170" width="1428" height="610" rx="28" fill="none" stroke="#e7e7e7" />
    </g>

    <g transform="translate(126 220)">
      <rect x="0" y="0" width="1350" height="52" rx="18" fill="#f6f6f6" />
      <text x="22" y="33" font-size="16" font-weight="750" fill="#141414">Activity</text>

      <g font-size="14" font-weight="750" fill="#343434" text-anchor="middle">
        <text x="374" y="33">W1</text>
        <text x="448" y="33">W2</text>
        <text x="522" y="33">W3</text>
        <text x="596" y="33">W4</text>
        <text x="670" y="33">W5</text>
        <text x="744" y="33">W6</text>
        <text x="818" y="33">W7</text>
        <text x="892" y="33">W8</text>
        <text x="966" y="33">W9</text>
        <text x="1040" y="33">W10</text>
        <text x="1114" y="33">W11</text>
        <text x="1188" y="33">W12</text>
        <text x="1262" y="33">W13</text>
      </g>

      <g stroke="#e8e8e8" stroke-width="1">
        <line x1="338" y1="0" x2="338" y2="512" />
        <line x1="412" y1="0" x2="412" y2="512" />
        <line x1="486" y1="0" x2="486" y2="512" />
        <line x1="560" y1="0" x2="560" y2="512" />
        <line x1="634" y1="0" x2="634" y2="512" />
        <line x1="708" y1="0" x2="708" y2="512" />
        <line x1="782" y1="0" x2="782" y2="512" />
        <line x1="856" y1="0" x2="856" y2="512" />
        <line x1="930" y1="0" x2="930" y2="512" />
        <line x1="1004" y1="0" x2="1004" y2="512" />
        <line x1="1078" y1="0" x2="1078" y2="512" />
        <line x1="1152" y1="0" x2="1152" y2="512" />
        <line x1="1226" y1="0" x2="1226" y2="512" />
        <line x1="1300" y1="0" x2="1300" y2="512" />
      </g>

      <g stroke="#efefef" stroke-width="1">
        <line x1="0" y1="104" x2="1350" y2="104" />
        <line x1="0" y1="160" x2="1350" y2="160" />
        <line x1="0" y1="216" x2="1350" y2="216" />
        <line x1="0" y1="272" x2="1350" y2="272" />
        <line x1="0" y1="328" x2="1350" y2="328" />
        <line x1="0" y1="384" x2="1350" y2="384" />
        <line x1="0" y1="440" x2="1350" y2="440" />
        <line x1="0" y1="496" x2="1350" y2="496" />
      </g>

      <g font-size="16" font-weight="700" fill="#151515">
        <text x="22" y="91">Research and literature review</text>
        <text x="22" y="147">Requirements and design</text>
        <text x="22" y="203">Synthetic data generation</text>
        <text x="22" y="259">Model training</text>
        <text x="22" y="315">Backend API</text>
        <text x="22" y="371">Frontend dashboard</text>
        <text x="22" y="427">Testing</text>
        <text x="22" y="483">Final documentation</text>
      </g>

      <g>
        <rect x="356" y="70" width="136" height="28" rx="14" fill="#16a34a" />
        <rect x="504" y="126" width="136" height="28" rx="14" fill="#16a34a" />
        <rect x="652" y="182" width="62" height="28" rx="14" fill="#16a34a" />
        <rect x="726" y="238" width="136" height="28" rx="14" fill="#16a34a" />
        <rect x="800" y="294" width="136" height="28" rx="14" fill="#16a34a" />
        <rect x="874" y="350" width="136" height="28" rx="14" fill="#16a34a" />
        <rect x="1022" y="406" width="136" height="28" rx="14" fill="#16a34a" />
        <rect x="1096" y="462" width="210" height="28" rx="14" fill="#16a34a" />
      </g>

      <g font-size="12" font-weight="800" fill="#ffffff" text-anchor="middle">
        <text x="424" y="90">2 weeks</text>
        <text x="572" y="146">2 weeks</text>
        <text x="683" y="202">1 week</text>
        <text x="794" y="258">2 weeks</text>
        <text x="868" y="314">2 weeks</text>
        <text x="942" y="370">2 weeks</text>
        <text x="1090" y="426">2 weeks</text>
        <text x="1201" y="482">3 weeks</text>
      </g>
    </g>
  </g>
</svg>
