<svg xmlns="http://www.w3.org/2000/svg" width="1600" height="950" viewBox="0 0 1600 950" role="img" aria-labelledby="title desc">
  <title id="title">Figure 3.15: Alerts page wireframe</title>
  <desc id="desc">A transparent Microsoft Word style alerts page wireframe showing filters, alert table and selected alert review actions.</desc>
  <defs>
    <style>
      .title { fill: #111111; font-family: Calibri, Arial, sans-serif; font-size: 40px; font-weight: 700; }
      .subtitle { fill: #333333; font-family: Calibri, Arial, sans-serif; font-size: 22px; }
      .frame { fill: #ffffff; stroke: #111111; stroke-width: 2.5; }
      .sidebar { fill: #f2f2f2; stroke: #111111; stroke-width: 2; }
      .header { fill: #ffffff; stroke: #111111; stroke-width: 2; }
      .card { fill: #ffffff; stroke: #111111; stroke-width: 2; }
      .orange { fill: #e6e6e6; stroke: #111111; stroke-width: 2; }
      .purple { fill: #f7f7f7; stroke: #111111; stroke-width: 2; }
      .pink { fill: #eeeeee; stroke: #111111; stroke-width: 2; }
      .light { fill: #f5f5f5; stroke: #777777; stroke-width: 1.8; }
      .textLight { fill: #111111; font-family: Calibri, Arial, sans-serif; font-size: 20px; font-weight: 700; }
      .textDark { fill: #111111; font-family: Calibri, Arial, sans-serif; font-size: 19px; font-weight: 700; }
      .small { fill: #111111; font-family: Calibri, Arial, sans-serif; font-size: 16px; font-weight: 600; }
      .muted { fill: #333333; font-family: Calibri, Arial, sans-serif; font-size: 15px; font-weight: 600; }
      .thin { stroke: #777777; stroke-width: 1.5; fill: none; }
    </style>
  </defs>

  <text x="90" y="86" class="title">PayGuard Alerts Page Wireframe</text>
  <text x="90" y="124" class="subtitle">Review interface for searching, filtering and updating suspicious transaction alerts</text>

  <rect x="90" y="170" width="1420" height="705" rx="10" class="frame"/>

  <rect x="110" y="190" width="245" height="665" rx="8" class="sidebar"/>
  <text x="232" y="245" class="textLight" text-anchor="middle">PayGuard</text>
  <text x="232" y="330" class="textLight" text-anchor="middle">Dashboard</text>
  <rect x="140" y="365" width="185" height="44" rx="8" fill="#ffffff" stroke="#111111" stroke-width="2"/>
  <text x="232" y="394" class="textDark" text-anchor="middle">Alerts</text>
  <text x="232" y="460" class="textLight" text-anchor="middle">Transactions</text>
  <text x="232" y="510" class="textLight" text-anchor="middle">Accounts</text>
  <text x="232" y="560" class="textLight" text-anchor="middle">Model Metrics</text>

  <rect x="385" y="190" width="1105" height="80" rx="8" class="header"/>
  <text x="425" y="223" class="textLight">Alerts Review</text>
  <text x="425" y="250" class="textLight">Suspicious transactions waiting for investigation</text>
  <rect x="1280" y="210" width="165" height="40" rx="8" fill="#ffffff" stroke="#111111" stroke-width="2"/>
  <text x="1362" y="236" class="textDark" text-anchor="middle">Export List</text>

  <rect x="385" y="300" width="1105" height="92" rx="8" class="card"/>
  <rect x="405" y="326" width="300" height="38" rx="6" class="light"/>
  <text x="555" y="350" class="muted" text-anchor="middle">Search account, transaction or reason</text>
  <rect x="735" y="326" width="145" height="38" rx="6" class="light"/>
  <text x="807" y="350" class="small" text-anchor="middle">Status: open</text>
  <rect x="905" y="326" width="145" height="38" rx="6" class="light"/>
  <text x="977" y="350" class="small" text-anchor="middle">Risk: high</text>
  <rect x="1075" y="326" width="160" height="38" rx="6" class="light"/>
  <text x="1155" y="350" class="small" text-anchor="middle">Type: all</text>
  <rect x="1280" y="322" width="165" height="46" rx="8" class="purple"/>
  <text x="1362" y="351" class="textLight" text-anchor="middle">Apply Filters</text>

  <rect x="385" y="425" width="690" height="405" rx="8" class="card"/>
  <rect x="385" y="425" width="690" height="42" rx="8" class="orange"/>
  <text x="730" y="453" class="textDark" text-anchor="middle">Alert Queue</text>

  <rect x="415" y="495" width="630" height="58" rx="6" class="light"/>
  <circle cx="445" cy="524" r="9" class="pink"/>
  <text x="470" y="517" class="small">AL-10041 | TX-09218 | ACC-1042</text>
  <text x="470" y="541" class="muted">critical risk 0.94 | high amount and new device</text>
  <rect x="910" y="507" width="95" height="34" rx="6" class="pink"/>
  <text x="957" y="529" class="textLight" text-anchor="middle">Open</text>

  <rect x="415" y="575" width="630" height="58" rx="6" class="light"/>
  <circle cx="445" cy="604" r="9" class="orange"/>
  <text x="470" y="597" class="small">AL-10040 | TX-09177 | ACC-0870</text>
  <text x="470" y="621" class="muted">high risk 0.88 | repeated transfers</text>
  <rect x="910" y="587" width="95" height="34" rx="6" class="orange"/>
  <text x="957" y="609" class="textDark" text-anchor="middle">Review</text>

  <rect x="415" y="655" width="630" height="58" rx="6" class="light"/>
  <circle cx="445" cy="684" r="9" class="purple"/>
  <text x="470" y="677" class="small">AL-10039 | TX-09102 | ACC-0331</text>
  <text x="470" y="701" class="muted">medium risk 0.72 | location change</text>
  <rect x="910" y="667" width="95" height="34" rx="6" class="purple"/>
  <text x="957" y="689" class="textLight" text-anchor="middle">Queued</text>

  <line x1="415" y1="745" x2="1045" y2="745" class="thin"/>
  <text x="415" y="780" class="muted">Selecting an alert opens detailed transaction and status controls.</text>

  <rect x="1105" y="425" width="385" height="405" rx="8" class="card"/>
  <rect x="1105" y="425" width="385" height="42" rx="8" class="header"/>
  <text x="1298" y="453" class="textLight" text-anchor="middle">Selected Alert Detail</text>

  <text x="1135" y="505" class="textDark">Transaction</text>
  <rect x="1135" y="520" width="320" height="42" rx="6" class="light"/>
  <text x="1295" y="546" class="small" text-anchor="middle">TX-09218 | ACC-1042 | USD 850.00</text>

  <text x="1135" y="600" class="textDark">Risk Reason</text>
  <rect x="1135" y="615" width="320" height="70" rx="6" class="light"/>
  <text x="1295" y="645" class="small" text-anchor="middle">Large amount, new device,</text>
  <text x="1295" y="670" class="small" text-anchor="middle">unusual location pattern</text>

  <rect x="1135" y="725" width="95" height="44" rx="8" class="header"/>
  <text x="1182" y="753" class="textLight" text-anchor="middle">Resolve</text>
  <rect x="1248" y="725" width="95" height="44" rx="8" class="orange"/>
  <text x="1295" y="753" class="textDark" text-anchor="middle">Close</text>
  <rect x="1360" y="725" width="95" height="44" rx="8" class="pink"/>
  <text x="1408" y="753" class="textLight" text-anchor="middle">Escalate</text>
</svg>
