<svg xmlns="http://www.w3.org/2000/svg" width="1700" height="1000" viewBox="0 0 1700 1000" role="img" aria-labelledby="title desc">
  <title id="title">Figure 6.10: Deployment options diagram</title>
  <desc id="desc">A transparent Microsoft Word style diagram comparing local PayGuard deployment with a future hosted deployment option.</desc>
  <defs>
    <marker id="arrow" markerWidth="12" markerHeight="12" refX="10" refY="6" orient="auto"><path d="M2 2 L10 6 L2 10 Z" fill="#111827"/></marker>
    <style>
      .title{fill:#111827;font-family:Calibri,Arial,sans-serif;font-size:40px;font-weight:700}.subtitle{fill:#4b5563;font-family:Calibri,Arial,sans-serif;font-size:22px}.box{fill:#fff;stroke:#111827;stroke-width:2.4}.blue{fill:#1e9bf0;stroke:#0f6fb5;stroke-width:2}.green{fill:#39b54a;stroke:#258a35;stroke-width:2}.orange{fill:#f9b21a;stroke:#c8890d;stroke-width:2}.purple{fill:#6b35d8;stroke:#4e22ad;stroke-width:2}.pink{fill:#e92b8b;stroke:#b91c6b;stroke-width:2}.note{fill:#fff;stroke:#e65b34;stroke-width:2;stroke-dasharray:8 6}.textLight{fill:#fff;font-family:Calibri,Arial,sans-serif;font-size:20px;font-weight:700}.textDark{fill:#111827;font-family:Calibri,Arial,sans-serif;font-size:19px;font-weight:700}.small{fill:#111827;font-family:Calibri,Arial,sans-serif;font-size:17px;font-weight:600}.line{stroke:#111827;stroke-width:2.5;fill:none;marker-end:url(#arrow);stroke-linecap:round;stroke-linejoin:round}
    </style>
  </defs>
  <text x="90" y="86" class="title">PayGuard Deployment Options Diagram</text>
  <text x="90" y="124" class="subtitle">Current local prototype deployment and recommended future hosted deployment direction</text>
  <rect x="110" y="200" width="650" height="610" rx="12" class="box"/>
  <rect x="110" y="200" width="650" height="60" rx="12" class="blue"/>
  <text x="435" y="239" class="textLight" text-anchor="middle">Option A: Local Prototype Deployment</text>
  <rect x="190" y="315" width="220" height="90" rx="10" class="green"/>
  <text x="300" y="350" class="textLight" text-anchor="middle">Vite Frontend</text>
  <text x="300" y="378" class="textLight" text-anchor="middle">localhost:5173</text>
  <rect x="460" y="315" width="220" height="90" rx="10" class="orange"/>
  <text x="570" y="350" class="textDark" text-anchor="middle">Flask Backend</text>
  <text x="570" y="378" class="textDark" text-anchor="middle">localhost:5000</text>
  <rect x="190" y="500" width="220" height="90" rx="10" class="purple"/>
  <text x="300" y="535" class="textLight" text-anchor="middle">SQLite File</text>
  <text x="300" y="563" class="textLight" text-anchor="middle">local database</text>
  <rect x="460" y="500" width="220" height="90" rx="10" class="pink"/>
  <text x="570" y="535" class="textLight" text-anchor="middle">Joblib Model</text>
  <text x="570" y="563" class="textLight" text-anchor="middle">local model file</text>
  <path d="M410 360 H450" class="line"/>
  <path d="M570 405 C520 455 395 500 350 515" class="line"/>
  <path d="M570 405 V490" class="line"/>
  <rect x="940" y="200" width="650" height="610" rx="12" class="box"/>
  <rect x="940" y="200" width="650" height="60" rx="12" class="green"/>
  <text x="1265" y="239" class="textLight" text-anchor="middle">Option B: Future Hosted Deployment</text>
  <rect x="1015" y="315" width="230" height="90" rx="10" class="blue"/>
  <text x="1130" y="350" class="textLight" text-anchor="middle">Static Frontend</text>
  <text x="1130" y="378" class="textLight" text-anchor="middle">Vercel or similar</text>
  <rect x="1285" y="315" width="230" height="90" rx="10" class="orange"/>
  <text x="1400" y="350" class="textDark" text-anchor="middle">Hosted API</text>
  <text x="1400" y="378" class="textDark" text-anchor="middle">Flask service</text>
  <rect x="1015" y="500" width="230" height="90" rx="10" class="purple"/>
  <text x="1130" y="535" class="textLight" text-anchor="middle">Managed DB</text>
  <text x="1130" y="563" class="textLight" text-anchor="middle">PostgreSQL option</text>
  <rect x="1285" y="500" width="230" height="90" rx="10" class="pink"/>
  <text x="1400" y="535" class="textLight" text-anchor="middle">Model Artefact</text>
  <text x="1400" y="563" class="textLight" text-anchor="middle">secure storage</text>
  <path d="M1245 360 H1275" class="line"/>
  <path d="M1400 405 C1350 455 1210 500 1170 515" class="line"/>
  <path d="M1400 405 V490" class="line"/>
  <path d="M760 500 H930" class="line"/>
  <text x="810" y="480" class="small">future improvement path</text>
  <rect x="470" y="850" width="760" height="72" rx="8" class="note"/>
  <text x="850" y="881" class="textDark" text-anchor="middle">Deployment note</text>
  <text x="850" y="909" class="small" text-anchor="middle">SQLite is suitable for the academic prototype; a managed database is recommended for production use.</text>
</svg>
