<svg xmlns="http://www.w3.org/2000/svg" width="1800" height="1050" viewBox="0 0 1800 1050" role="img" aria-labelledby="title desc">
  <title id="title">Figure 3.10: Sequence diagram</title>
  <desc id="desc">A transparent Microsoft Word style sequence diagram showing the PayGuard transaction scoring request flow.</desc>
  <defs>
    <marker id="arrow" markerWidth="12" markerHeight="12" refX="10" refY="6" orient="auto">
      <path d="M2 2 L10 6 L2 10 Z" fill="#111111"/>
    </marker>
    <marker id="openArrow" markerWidth="12" markerHeight="12" refX="10" refY="6" orient="auto">
      <path d="M2 2 L10 6 L2 10" fill="none" stroke="#111111" stroke-width="2"/>
    </marker>
    <style>
      .title { fill: #111111; font-family: Calibri, Arial, sans-serif; font-size: 40px; font-weight: 700; }
      .subtitle { fill: #333333; font-family: Calibri, Arial, sans-serif; font-size: 22px; }
      .head { fill: #f2f2f2; stroke: #111111; stroke-width: 2; }
      .headGreen { fill: #ffffff; stroke: #111111; stroke-width: 2; }
      .headOrange { fill: #e6e6e6; stroke: #111111; stroke-width: 2; }
      .headPurple { fill: #f7f7f7; stroke: #111111; stroke-width: 2; }
      .headPink { fill: #eeeeee; stroke: #111111; stroke-width: 2; }
      .textLight { fill: #111111; font-family: Calibri, Arial, sans-serif; font-size: 19px; font-weight: 700; }
      .msgText { fill: #111111; font-family: Calibri, Arial, sans-serif; font-size: 17px; font-weight: 600; }
      .life { stroke: #777777; stroke-width: 2; stroke-dasharray: 8 8; }
      .activation { fill: #ffffff; stroke: #111111; stroke-width: 2; }
      .msg { stroke: #111111; stroke-width: 2.4; fill: none; marker-end: url(#arrow); stroke-linecap: round; }
      .return { stroke: #111111; stroke-width: 2.2; fill: none; marker-end: url(#openArrow); stroke-dasharray: 8 6; stroke-linecap: round; }
      .note { fill: #ffffff; stroke: #111111; stroke-width: 2; stroke-dasharray: 8 6; }
    </style>
  </defs>

  <text x="90" y="86" class="title">PayGuard Sequence Diagram</text>
  <text x="90" y="124" class="subtitle">Transaction scoring request from dashboard submission to returned risk result</text>

  <rect x="95" y="185" width="190" height="58" rx="8" class="head"/>
  <text x="190" y="221" class="textLight" text-anchor="middle">Finance User</text>

  <rect x="390" y="185" width="210" height="58" rx="8" class="headGreen"/>
  <text x="495" y="221" class="textLight" text-anchor="middle">React Dashboard</text>

  <rect x="705" y="185" width="210" height="58" rx="8" class="headOrange"/>
  <text x="810" y="221" class="textLight" text-anchor="middle">Flask API</text>

  <rect x="1020" y="185" width="210" height="58" rx="8" class="headPurple"/>
  <text x="1125" y="221" class="textLight" text-anchor="middle">SQLite DB</text>

  <rect x="1335" y="185" width="230" height="58" rx="8" class="headPink"/>
  <text x="1450" y="221" class="textLight" text-anchor="middle">ML Model</text>

  <line x1="190" y1="243" x2="190" y2="930" class="life"/>
  <line x1="495" y1="243" x2="495" y2="930" class="life"/>
  <line x1="810" y1="243" x2="810" y2="930" class="life"/>
  <line x1="1125" y1="243" x2="1125" y2="930" class="life"/>
  <line x1="1450" y1="243" x2="1450" y2="930" class="life"/>

  <rect x="486" y="310" width="18" height="520" class="activation"/>
  <rect x="801" y="370" width="18" height="430" class="activation"/>
  <rect x="1116" y="450" width="18" height="145" class="activation"/>
  <rect x="1441" y="610" width="18" height="90" class="activation"/>

  <path d="M190 320 H486" class="msg"/>
  <text x="260" y="303" class="msgText">enter transaction details</text>

  <path d="M504 380 H801" class="msg"/>
  <text x="570" y="363" class="msgText">POST /api/score</text>

  <path d="M819 455 H1116" class="msg"/>
  <text x="890" y="438" class="msgText">request account history</text>

  <path d="M1116 535 H819" class="return"/>
  <text x="895" y="518" class="msgText">history rows</text>

  <path d="M819 620 H1441" class="msg"/>
  <text x="1010" y="603" class="msgText">build features and request prediction</text>

  <path d="M1441 690 H819" class="return"/>
  <text x="1028" y="673" class="msgText">predicted label and risk score</text>

  <path d="M819 750 H1116" class="msg"/>
  <text x="890" y="733" class="msgText">save transaction and alert</text>

  <path d="M1116 790 H819" class="return"/>
  <text x="910" y="776" class="msgText">record IDs</text>

  <path d="M801 830 H504" class="return"/>
  <text x="565" y="812" class="msgText">JSON score result</text>

  <path d="M486 880 H190" class="return"/>
  <text x="245" y="862" class="msgText">display risk score and reason</text>

  <rect x="1185" y="735" width="300" height="84" rx="8" class="note"/>
  <text x="1335" y="769" class="msgText" text-anchor="middle">Alert is created when</text>
  <text x="1335" y="796" class="msgText" text-anchor="middle">risk score reaches threshold</text>
</svg>
