<svg xmlns="http://www.w3.org/2000/svg" width="1750" height="1100" viewBox="0 0 1750 1100" role="img" aria-labelledby="title desc">
  <title id="title">Figure 4.11: Transaction scoring flowchart</title>
  <desc id="desc">A transparent Microsoft Word style implementation flowchart showing how the PayGuard backend scores and stores a submitted transaction.</desc>
  <defs>
    <marker id="arrow" markerWidth="12" markerHeight="12" refX="10" refY="6" orient="auto">
      <path d="M2 2 L10 6 L2 10 Z" fill="#111827"/>
    </marker>
    <style>
      .title { fill: #111827; font-family: Calibri, Arial, sans-serif; font-size: 40px; font-weight: 700; }
      .subtitle { fill: #4b5563; font-family: Calibri, Arial, sans-serif; font-size: 22px; }
      .startEnd { fill: #1e9bf0; stroke: #0f6fb5; stroke-width: 2; }
      .process { fill: #39b54a; stroke: #258a35; stroke-width: 2; }
      .decision { fill: #f9b21a; stroke: #c8890d; stroke-width: 2; }
      .output { fill: #6b35d8; stroke: #4e22ad; stroke-width: 2; }
      .error { fill: #ffffff; stroke: #e65b34; stroke-width: 2; stroke-dasharray: 8 6; }
      .textLight { fill: #ffffff; font-family: Calibri, Arial, sans-serif; font-size: 19px; font-weight: 700; }
      .textDark { fill: #111827; font-family: Calibri, Arial, sans-serif; font-size: 18px; font-weight: 700; }
      .small { fill: #111827; font-family: Calibri, Arial, sans-serif; font-size: 17px; font-weight: 600; }
      .line { stroke: #111827; stroke-width: 2.4; fill: none; marker-end: url(#arrow); stroke-linecap: round; stroke-linejoin: round; }
      .dash { stroke: #e65b34; stroke-width: 2.4; fill: none; marker-end: url(#arrow); stroke-dasharray: 8 6; stroke-linecap: round; stroke-linejoin: round; }
    </style>
  </defs>

  <text x="90" y="86" class="title">Transaction Scoring Implementation Flowchart</text>
  <text x="90" y="124" class="subtitle">Backend processing steps from API request to stored result and dashboard response</text>

  <circle cx="875" cy="190" r="42" class="startEnd"/>
  <text x="875" y="198" class="textLight" text-anchor="middle">Start</text>

  <rect x="690" y="265" width="370" height="72" rx="9" class="process"/>
  <text x="875" y="295" class="textLight" text-anchor="middle">Receive /api/score</text>
  <text x="875" y="321" class="textLight" text-anchor="middle">JSON request</text>

  <polygon points="875,385 1045,470 875,555 705,470" class="decision"/>
  <text x="875" y="463" class="textDark" text-anchor="middle">Request</text>
  <text x="875" y="489" class="textDark" text-anchor="middle">valid?</text>

  <rect x="1180" y="435" width="320" height="72" rx="9" class="error"/>
  <text x="1340" y="465" class="textDark" text-anchor="middle">Return 400 JSON</text>
  <text x="1340" y="491" class="textDark" text-anchor="middle">validation error</text>

  <rect x="690" y="610" width="370" height="72" rx="9" class="process"/>
  <text x="875" y="640" class="textLight" text-anchor="middle">Fetch account history</text>
  <text x="875" y="666" class="textLight" text-anchor="middle">from SQLite</text>

  <rect x="690" y="730" width="370" height="72" rx="9" class="process"/>
  <text x="875" y="760" class="textLight" text-anchor="middle">Build feature row</text>
  <text x="875" y="786" class="textLight" text-anchor="middle">for model pipeline</text>

  <rect x="265" y="730" width="335" height="72" rx="9" class="process"/>
  <text x="432" y="760" class="textLight" text-anchor="middle">Run model prediction</text>
  <text x="432" y="786" class="textLight" text-anchor="middle">and probability</text>

  <rect x="265" y="610" width="335" height="72" rx="9" class="process"/>
  <text x="432" y="640" class="textLight" text-anchor="middle">Calculate risk level</text>
  <text x="432" y="666" class="textLight" text-anchor="middle">and reason</text>

  <rect x="265" y="490" width="335" height="72" rx="9" class="process"/>
  <text x="432" y="520" class="textLight" text-anchor="middle">Save transaction</text>
  <text x="432" y="546" class="textLight" text-anchor="middle">with score</text>

  <polygon points="432,265 602,350 432,435 262,350" class="decision"/>
  <text x="432" y="343" class="textDark" text-anchor="middle">Create</text>
  <text x="432" y="369" class="textDark" text-anchor="middle">alert?</text>

  <rect x="265" y="165" width="335" height="72" rx="9" class="process"/>
  <text x="432" y="195" class="textLight" text-anchor="middle">Save alert record</text>
  <text x="432" y="221" class="textLight" text-anchor="middle">with open status</text>

  <path d="M1185 735 L1515 735 L1490 820 L1160 820 Z" class="output"/>
  <text x="1338" y="770" class="textLight" text-anchor="middle">Build response JSON</text>
  <text x="1338" y="797" class="textLight" text-anchor="middle">risk, alert, reason</text>

  <circle cx="1338" cy="925" r="42" class="startEnd"/>
  <text x="1338" y="933" class="textLight" text-anchor="middle">End</text>

  <path d="M875 232 V255" class="line"/>
  <path d="M875 337 V375" class="line"/>
  <path d="M1045 470 H1170" class="dash"/>
  <text x="1085" y="450" class="small">No</text>
  <path d="M1340 507 V883" class="dash"/>

  <path d="M875 555 V600" class="line"/>
  <text x="895" y="582" class="small">Yes</text>
  <path d="M875 682 V720" class="line"/>
  <path d="M690 766 H610" class="line"/>
  <path d="M432 730 V692" class="line"/>
  <path d="M432 610 V572" class="line"/>
  <path d="M432 490 V445" class="line"/>

  <path d="M432 265 V247" class="line"/>
  <text x="452" y="258" class="small">Yes</text>
  <path d="M602 350 C850 370 1045 650 1165 760" class="line"/>
  <text x="625" y="330" class="small">No</text>

  <path d="M600 201 C850 225 1055 630 1168 770" class="line"/>
  <path d="M1338 820 V883" class="line"/>
</svg>
