<svg xmlns="http://www.w3.org/2000/svg" width="1600" height="1000" viewBox="0 0 1600 1000" role="img" aria-labelledby="title desc">
  <title id="title">Figure 3.4: Activity diagram</title>
  <desc id="desc">A transparent Microsoft Word style activity diagram showing transaction scoring and alert review in PayGuard.</desc>
  <defs>
    <marker id="arrow" markerWidth="12" markerHeight="12" refX="10" refY="6" orient="auto">
      <path d="M2 2 L10 6 L2 10 Z" fill="#111111"/>
    </marker>
    <style>
      .title { fill: #111111; font-family: Calibri, Arial, sans-serif; font-size: 40px; font-weight: 700; }
      .subtitle { fill: #333333; font-family: Calibri, Arial, sans-serif; font-size: 22px; }
      .startEnd { fill: #eaf2ff; stroke: #111111; stroke-width: 2; }
      .process { fill: #eaf7ee; stroke: #111111; stroke-width: 2; }
      .decision { fill: #fff2cc; stroke: #111111; stroke-width: 2; }
      .exception { fill: #ffffff; stroke: #111111; stroke-width: 2; stroke-dasharray: 8 6; }
      .textLight { fill: #111111; font-family: Calibri, Arial, sans-serif; font-size: 20px; font-weight: 700; }
      .textDark { fill: #111111; font-family: Calibri, Arial, sans-serif; font-size: 18px; font-weight: 700; }
      .small { fill: #111111; font-family: Calibri, Arial, sans-serif; font-size: 17px; font-weight: 600; }
      .line { stroke: #111111; stroke-width: 2.4; fill: none; marker-end: url(#arrow); stroke-linecap: round; stroke-linejoin: round; }
    </style>
  </defs>

  <text x="90" y="86" class="title">PayGuard Activity Diagram</text>
  <text x="90" y="124" class="subtitle">Main transaction scoring and alert review workflow</text>

  <circle cx="800" cy="190" r="38" class="startEnd"/>
  <text x="800" y="197" class="textLight" text-anchor="middle">Start</text>

  <rect x="615" y="265" width="370" height="70" rx="10" class="process"/>
  <text x="800" y="294" class="textLight" text-anchor="middle">User enters transaction</text>
  <text x="800" y="320" class="textLight" text-anchor="middle">details on dashboard</text>

  <rect x="615" y="380" width="370" height="70" rx="10" class="process"/>
  <text x="800" y="409" class="textLight" text-anchor="middle">Frontend sends request</text>
  <text x="800" y="435" class="textLight" text-anchor="middle">to Flask API</text>

  <polygon points="800,495 965,580 800,665 635,580" class="decision"/>
  <text x="800" y="574" class="textDark" text-anchor="middle">Input</text>
  <text x="800" y="600" class="textDark" text-anchor="middle">valid?</text>

  <rect x="1085" y="545" width="300" height="70" rx="10" class="exception"/>
  <text x="1235" y="574" class="textDark" text-anchor="middle">Return validation</text>
  <text x="1235" y="600" class="textDark" text-anchor="middle">error message</text>

  <rect x="615" y="715" width="370" height="70" rx="10" class="process"/>
  <text x="800" y="744" class="textLight" text-anchor="middle">Retrieve account history</text>
  <text x="800" y="770" class="textLight" text-anchor="middle">from SQLite</text>

  <rect x="615" y="830" width="370" height="70" rx="10" class="process"/>
  <text x="800" y="859" class="textLight" text-anchor="middle">Build features and</text>
  <text x="800" y="885" class="textLight" text-anchor="middle">score transaction</text>

  <rect x="155" y="830" width="340" height="70" rx="10" class="process"/>
  <text x="325" y="859" class="textLight" text-anchor="middle">Save transaction</text>
  <text x="325" y="885" class="textLight" text-anchor="middle">with risk result</text>

  <polygon points="325,630 485,715 325,800 165,715" class="decision"/>
  <text x="325" y="708" class="textDark" text-anchor="middle">Risk above</text>
  <text x="325" y="734" class="textDark" text-anchor="middle">threshold?</text>

  <rect x="155" y="490" width="340" height="70" rx="10" class="process"/>
  <text x="325" y="519" class="textLight" text-anchor="middle">Create alert and</text>
  <text x="325" y="545" class="textLight" text-anchor="middle">show review reason</text>

  <rect x="155" y="365" width="340" height="70" rx="10" class="process"/>
  <text x="325" y="394" class="textLight" text-anchor="middle">User reviews alert</text>
  <text x="325" y="420" class="textLight" text-anchor="middle">details</text>

  <rect x="155" y="240" width="340" height="70" rx="10" class="process"/>
  <text x="325" y="269" class="textLight" text-anchor="middle">Update alert status</text>
  <text x="325" y="295" class="textLight" text-anchor="middle">resolved or closed</text>

  <circle cx="1235" cy="730" r="38" class="startEnd"/>
  <text x="1235" y="737" class="textLight" text-anchor="middle">End</text>

  <path d="M800 228 V255" class="line"/>
  <path d="M800 335 V370" class="line"/>
  <path d="M800 450 V485" class="line"/>

  <path d="M965 580 H1075" class="line"/>
  <text x="1000" y="560" class="small">No</text>
  <path d="M1235 615 V682" class="line"/>

  <path d="M800 665 V705" class="line"/>
  <text x="820" y="690" class="small">Yes</text>
  <path d="M800 785 V820" class="line"/>
  <path d="M615 865 H505" class="line"/>
  <path d="M325 830 V810" class="line"/>

  <path d="M325 630 V570" class="line"/>
  <text x="344" y="598" class="small">Yes</text>
  <path d="M325 490 V445" class="line"/>
  <path d="M325 365 V320" class="line"/>
  <path d="M495 715 H1188 C1230 715 1235 700 1235 692" class="line"/>
  <text x="520" y="695" class="small">No</text>
  <path d="M495 275 H1235 V682" class="line"/>
</svg>
