<svg xmlns="http://www.w3.org/2000/svg" width="1600" height="900" viewBox="0 0 1600 900" role="img" aria-labelledby="title desc">
  <title id="title">Figure 3.5: Level 0 data flow diagram</title>
  <desc id="desc">A transparent Microsoft Word style Level 0 DFD showing PayGuard as one main process connected to users and data stores.</desc>
  <defs>
    <marker id="arrow" markerWidth="12" markerHeight="12" refX="10" refY="6" orient="auto">
      <path d="M2 2 L10 6 L2 10 Z" fill="#111111"/>
    </marker>
    <style>
      .title { fill: #111111; font-family: Calibri, Arial, sans-serif; font-size: 40px; font-weight: 700; }
      .subtitle { fill: #333333; font-family: Calibri, Arial, sans-serif; font-size: 22px; }
      .entity { fill: #eaf2ff; stroke: #111111; stroke-width: 2; }
      .process { fill: #eaf7ee; stroke: #111111; stroke-width: 2.5; }
      .store { fill: #fff2cc; stroke: #111111; stroke-width: 2; }
      .model { fill: #eef2ff; stroke: #111111; stroke-width: 2; }
      .textLight { fill: #111111; font-family: Calibri, Arial, sans-serif; font-size: 21px; font-weight: 700; }
      .textDark { fill: #111111; font-family: Calibri, Arial, sans-serif; font-size: 20px; font-weight: 700; }
      .small { fill: #111111; font-family: Calibri, Arial, sans-serif; font-size: 17px; font-weight: 600; }
      .line { stroke: #111111; stroke-width: 2.4; fill: none; marker-end: url(#arrow); stroke-linecap: round; stroke-linejoin: round; }
      .storeLine { stroke: #111111; stroke-width: 2.2; fill: none; stroke-linecap: round; }
    </style>
  </defs>

  <text x="90" y="86" class="title">PayGuard Level 0 Data Flow Diagram</text>
  <text x="90" y="124" class="subtitle">Main data movement between users, PayGuard and stored records</text>

  <rect x="650" y="315" width="350" height="190" rx="18" class="process"/>
  <text x="825" y="378" class="textLight" text-anchor="middle">0</text>
  <text x="825" y="412" class="textLight" text-anchor="middle">PayGuard Fraud</text>
  <text x="825" y="442" class="textLight" text-anchor="middle">Detection System</text>

  <rect x="95" y="245" width="290" height="105" rx="10" class="entity"/>
  <text x="240" y="288" class="textLight" text-anchor="middle">Finance User</text>
  <text x="240" y="318" class="textLight" text-anchor="middle">or Fraud Analyst</text>

  <rect x="95" y="565" width="290" height="105" rx="10" class="entity"/>
  <text x="240" y="608" class="textLight" text-anchor="middle">Researcher</text>
  <text x="240" y="638" class="textLight" text-anchor="middle">or Developer</text>

  <path d="M1190 205 H1490 V300 H1190 Z" class="store"/>
  <line x1="1230" y1="205" x2="1230" y2="300" class="storeLine"/>
  <text x="1350" y="247" class="textDark" text-anchor="middle">D1 Transactions</text>
  <text x="1350" y="275" class="small" text-anchor="middle">SQLite records</text>

  <path d="M1190 385 H1490 V480 H1190 Z" class="store"/>
  <line x1="1230" y1="385" x2="1230" y2="480" class="storeLine"/>
  <text x="1350" y="427" class="textDark" text-anchor="middle">D2 Alerts</text>
  <text x="1350" y="455" class="small" text-anchor="middle">review cases</text>

  <path d="M1190 565 H1490 V660 H1190 Z" class="model"/>
  <line x1="1230" y1="565" x2="1230" y2="660" class="storeLine"/>
  <text x="1350" y="607" class="textLight" text-anchor="middle">D3 Model Files</text>
  <text x="1350" y="635" class="textLight" text-anchor="middle">joblib and metrics</text>

  <path d="M385 285 C500 285 548 335 640 370" class="line"/>
  <text x="430" y="266" class="small">transaction details, filters</text>

  <path d="M650 445 C535 455 500 490 385 575" class="line"/>
  <text x="430" y="508" class="small">scores, alerts, account summaries</text>

  <path d="M385 620 C510 620 560 505 645 470" class="line"/>
  <text x="430" y="650" class="small">generated data, training actions</text>

  <path d="M1000 360 C1075 330 1110 260 1180 252" class="line"/>
  <text x="1012" y="307" class="small">save or read transactions</text>

  <path d="M1188 290 C1120 310 1080 385 1000 405" class="line"/>
  <text x="1035" y="387" class="small">transaction history</text>

  <path d="M1000 430 H1180" class="line"/>
  <text x="1048" y="412" class="small">create and update alerts</text>

  <path d="M1188 462 C1110 480 1070 470 1000 455" class="line"/>
  <text x="1054" y="500" class="small">alert records</text>

  <path d="M1000 482 C1085 530 1110 590 1180 612" class="line"/>
  <text x="1020" y="570" class="small">model request and report</text>

  <path d="M1188 625 C1095 610 1068 525 1000 480" class="line"/>
  <text x="1045" y="650" class="small">prediction model</text>
</svg>
