<svg xmlns="http://www.w3.org/2000/svg" width="1700" height="1000" viewBox="0 0 1700 1000" role="img" aria-labelledby="title desc">
  <title id="title">Figure 6.1: Implementation overview diagram</title>
  <desc id="desc">A transparent Microsoft Word style implementation overview diagram showing how the PayGuard project was built and connected.</desc>
  <defs>
    <marker id="arrow" markerWidth="12" markerHeight="12" refX="10" refY="6" orient="auto"><path d="M2 2 L10 6 L2 10 Z" fill="#111111"/></marker>
    <style>
      .title{fill:#111111;font-family:Calibri,Arial,sans-serif;font-size:40px;font-weight:700}.subtitle{fill:#333333;font-family:Calibri,Arial,sans-serif;font-size:22px}.green{fill:#ffffff;stroke:#111111;stroke-width:2}.blue{fill:#f2f2f2;stroke:#111111;stroke-width:2}.orange{fill:#e6e6e6;stroke:#111111;stroke-width:2}.purple{fill:#f7f7f7;stroke:#111111;stroke-width:2}.pink{fill:#eeeeee;stroke:#111111;stroke-width:2}.output{fill:#ffffff;stroke:#111111;stroke-width:2.4}.textLight { fill: #111111;font-family:Calibri,Arial,sans-serif;font-size:20px;font-weight:700}.textDark{fill:#111111;font-family:Calibri,Arial,sans-serif;font-size:19px;font-weight:700}.small{fill:#111111;font-family:Calibri,Arial,sans-serif;font-size:17px;font-weight:600}.line{stroke:#111111;stroke-width:2.5;fill:none;marker-end:url(#arrow);stroke-linecap:round;stroke-linejoin:round}
    </style>
  </defs>
  <text x="90" y="86" class="title">PayGuard Implementation Overview</text>
  <text x="90" y="124" class="subtitle">Main implementation stages and how the completed prototype components work together</text>
  <rect x="110" y="245" width="300" height="110" rx="12" class="blue"/>
  <text x="260" y="285" class="textLight" text-anchor="middle">Project Setup</text>
  <text x="260" y="316" class="textLight" text-anchor="middle">frontend, backend, docs</text>
  <rect x="520" y="245" width="300" height="110" rx="12" class="orange"/>
  <text x="670" y="285" class="textDark" text-anchor="middle">Synthetic Data</text>
  <text x="670" y="316" class="textDark" text-anchor="middle">transactions and labels</text>
  <rect x="930" y="245" width="300" height="110" rx="12" class="purple"/>
  <text x="1080" y="285" class="textLight" text-anchor="middle">Machine Learning</text>
  <text x="1080" y="316" class="textLight" text-anchor="middle">features and model</text>
  <rect x="1340" y="245" width="300" height="110" rx="12" class="green"/>
  <text x="1490" y="285" class="textLight" text-anchor="middle">Saved Artefacts</text>
  <text x="1490" y="316" class="textLight" text-anchor="middle">CSV, DB, joblib model</text>
  <rect x="315" y="560" width="300" height="120" rx="12" class="pink"/>
  <text x="465" y="602" class="textLight" text-anchor="middle">Flask Backend</text>
  <text x="465" y="633" class="textLight" text-anchor="middle">API, validation, scoring</text>
  <rect x="700" y="560" width="300" height="120" rx="12" class="blue"/>
  <text x="850" y="602" class="textLight" text-anchor="middle">SQLite Database</text>
  <text x="850" y="633" class="textLight" text-anchor="middle">transactions and alerts</text>
  <rect x="1085" y="560" width="300" height="120" rx="12" class="green"/>
  <text x="1235" y="602" class="textLight" text-anchor="middle">React Dashboard</text>
  <text x="1235" y="633" class="textLight" text-anchor="middle">views and charts</text>
  <path d="M410 300 H510" class="line"/>
  <path d="M820 300 H920" class="line"/>
  <path d="M1230 300 H1330" class="line"/>
  <path d="M1490 355 C1420 455 1320 530 1260 555" class="line"/>
  <text x="1335" y="455" class="small">served to user</text>
  <path d="M1080 355 C965 450 890 510 860 550" class="line"/>
  <text x="900" y="455" class="small">model and metrics</text>
  <path d="M670 355 C590 455 510 520 470 550" class="line"/>
  <text x="520" y="455" class="small">seed and test data</text>
  <path d="M615 620 H690" class="line"/>
  <text x="630" y="600" class="small">stores records</text>
  <path d="M1000 620 H1075" class="line"/>
  <text x="1015" y="600" class="small">returns data</text>
  <path d="M1235 560 C1125 460 780 460 465 560" class="line"/>
  <text x="785" y="432" class="small">dashboard calls backend APIs</text>
  <rect x="470" y="790" width="760" height="70" rx="8" class="output"/>
  <text x="850" y="820" class="textDark" text-anchor="middle">Completed PayGuard Prototype</text>
  <text x="850" y="848" class="small" text-anchor="middle">Generate data, train model, score transactions, store alerts, display dashboard results.</text>
</svg>
