<svg xmlns="http://www.w3.org/2000/svg" width="1700" height="1050" viewBox="0 0 1700 1050" role="img" aria-labelledby="title desc">
  <title id="title">Figure 3.6: Level 1 data flow diagram</title>
  <desc id="desc">A transparent Microsoft Word style Level 1 DFD showing PayGuard sub-processes, external actors and data stores.</desc>
  <defs>
    <marker id="arrow" markerWidth="12" markerHeight="12" refX="10" refY="6" orient="auto">
      <path d="M2 2 L10 6 L2 10 Z" fill="#111111"/>
    </marker>
    <style>
      .title { fill: #111111; font-family: Calibri, Arial, sans-serif; font-size: 40px; font-weight: 700; }
      .subtitle { fill: #333333; font-family: Calibri, Arial, sans-serif; font-size: 22px; }
      .entity { fill: #eaf2ff; stroke: #111111; stroke-width: 2; }
      .process { fill: #eaf7ee; stroke: #111111; stroke-width: 2.4; }
      .store { fill: #fff2cc; stroke: #111111; stroke-width: 2; }
      .model { fill: #eef2ff; stroke: #111111; stroke-width: 2; }
      .textLight { fill: #111111; font-family: Calibri, Arial, sans-serif; font-size: 20px; font-weight: 700; }
      .textDark { fill: #111111; font-family: Calibri, Arial, sans-serif; font-size: 18px; font-weight: 700; }
      .small { fill: #111111; font-family: Calibri, Arial, sans-serif; font-size: 16px; font-weight: 600; }
      .line { stroke: #111111; stroke-width: 2.25; fill: none; marker-end: url(#arrow); stroke-linecap: round; stroke-linejoin: round; }
      .storeLine { stroke: #111111; stroke-width: 2; fill: none; stroke-linecap: round; }
    </style>
  </defs>

  <text x="90" y="86" class="title">PayGuard Level 1 Data Flow Diagram</text>
  <text x="90" y="124" class="subtitle">Breakdown of transaction capture, scoring, alert handling and dashboard reporting</text>

  <rect x="90" y="220" width="270" height="90" rx="10" class="entity"/>
  <text x="225" y="257" class="textLight" text-anchor="middle">Finance User</text>
  <text x="225" y="286" class="textLight" text-anchor="middle">or Fraud Analyst</text>

  <rect x="90" y="765" width="270" height="90" rx="10" class="entity"/>
  <text x="225" y="802" class="textLight" text-anchor="middle">Researcher</text>
  <text x="225" y="831" class="textLight" text-anchor="middle">or Developer</text>

  <rect x="505" y="195" width="300" height="95" rx="12" class="process"/>
  <text x="655" y="230" class="textLight" text-anchor="middle">1.0 Capture and</text>
  <text x="655" y="258" class="textLight" text-anchor="middle">Validate Transaction</text>

  <rect x="505" y="385" width="300" height="95" rx="12" class="process"/>
  <text x="655" y="420" class="textLight" text-anchor="middle">2.0 Build Features</text>
  <text x="655" y="448" class="textLight" text-anchor="middle">and Score Risk</text>

  <rect x="505" y="575" width="300" height="95" rx="12" class="process"/>
  <text x="655" y="610" class="textLight" text-anchor="middle">3.0 Create and</text>
  <text x="655" y="638" class="textLight" text-anchor="middle">Manage Alerts</text>

  <rect x="505" y="765" width="300" height="95" rx="12" class="process"/>
  <text x="655" y="800" class="textLight" text-anchor="middle">4.0 Generate Data</text>
  <text x="655" y="828" class="textLight" text-anchor="middle">and Train Model</text>

  <rect x="965" y="385" width="300" height="95" rx="12" class="process"/>
  <text x="1115" y="420" class="textLight" text-anchor="middle">5.0 Prepare</text>
  <text x="1115" y="448" class="textLight" text-anchor="middle">Dashboard Output</text>

  <path d="M1325 180 H1600 V270 H1325 Z" class="store"/>
  <line x1="1360" y1="180" x2="1360" y2="270" class="storeLine"/>
  <text x="1470" y="218" class="textDark" text-anchor="middle">D1 Transactions</text>
  <text x="1470" y="246" class="small" text-anchor="middle">stored payment records</text>

  <path d="M1325 385 H1600 V475 H1325 Z" class="store"/>
  <line x1="1360" y1="385" x2="1360" y2="475" class="storeLine"/>
  <text x="1470" y="423" class="textDark" text-anchor="middle">D2 Alerts</text>
  <text x="1470" y="451" class="small" text-anchor="middle">review records</text>

  <path d="M1325 590 H1600 V680 H1325 Z" class="model"/>
  <line x1="1360" y1="590" x2="1360" y2="680" class="storeLine"/>
  <text x="1470" y="628" class="textLight" text-anchor="middle">D3 Model Files</text>
  <text x="1470" y="656" class="textLight" text-anchor="middle">joblib and metrics</text>

  <path d="M1325 795 H1600 V885 H1325 Z" class="store"/>
  <line x1="1360" y1="795" x2="1360" y2="885" class="storeLine"/>
  <text x="1470" y="833" class="textDark" text-anchor="middle">D4 Synthetic Data</text>
  <text x="1470" y="861" class="small" text-anchor="middle">CSV training dataset</text>

  <path d="M360 255 H495" class="line"/>
  <text x="380" y="236" class="small">transaction details</text>

  <path d="M655 290 V375" class="line"/>
  <text x="675" y="336" class="small">validated transaction</text>

  <path d="M805 242 C980 220 1105 220 1315 225" class="line"/>
  <text x="960" y="204" class="small">save transaction record</text>

  <path d="M1325 270 C1100 300 910 340 805 405" class="line"/>
  <text x="1015" y="334" class="small">account history</text>

  <path d="M1325 635 C1090 625 930 520 805 448" class="line"/>
  <text x="1015" y="575" class="small">loaded prediction model</text>

  <path d="M655 480 V565" class="line"/>
  <text x="675" y="527" class="small">risk score and label</text>

  <path d="M805 622 H1315" class="line"/>
  <text x="980" y="603" class="small">create or update alert</text>

  <path d="M805 432 H955" class="line"/>
  <text x="835" y="413" class="small">score result</text>

  <path d="M1325 225 C1260 275 1225 335 1190 385" class="line"/>
  <text x="1208" y="302" class="small">transaction summaries</text>

  <path d="M1325 430 H1265" class="line"/>
  <text x="1272" y="458" class="small">alert summaries</text>

  <path d="M965 455 C790 530 530 520 360 300" class="line"/>
  <text x="704" y="540" class="small">dashboard metrics, risk result, alerts</text>

  <path d="M360 810 H495" class="line"/>
  <text x="380" y="790" class="small">generation and training commands</text>

  <path d="M805 812 H1315" class="line"/>
  <text x="990" y="792" class="small">save synthetic dataset</text>

  <path d="M1325 840 C1105 835 990 720 805 825" class="line"/>
  <text x="1030" y="875" class="small">training data</text>

  <path d="M805 765 C995 700 1130 665 1315 635" class="line"/>
  <text x="990" y="710" class="small">saved trained model</text>
</svg>
