<svg xmlns="http://www.w3.org/2000/svg" width="1600" height="950" viewBox="0 0 1600 950" role="img" aria-labelledby="title desc">
  <title id="title">Figure 3.7: Entity relationship diagram</title>
  <desc id="desc">A transparent Microsoft Word style entity relationship diagram showing PayGuard transactions, alerts and model runs.</desc>
  <defs>
    <marker id="arrow" viewBox="0 0 10 10" refX="9" refY="5" markerWidth="8" markerHeight="8" orient="auto-start-reverse">
      <path d="M 0 0 L 10 5 L 0 10 z" fill="#111111"/>
    </marker>
    <style>
      .title { fill: #111111; font-family: Calibri, Arial, sans-serif; font-size: 40px; font-weight: 700; }
      .subtitle { fill: #333333; font-family: Calibri, Arial, sans-serif; font-size: 22px; }
      .table { fill: #ffffff; stroke: #111111; stroke-width: 2.4; }
      .headBlue { fill: #f2f2f2; stroke: none; }
      .headGreen { fill: #ffffff; stroke: none; }
      .headPurple { fill: #f7f7f7; stroke: none; }
      .derived { fill: #ffffff; stroke: #111111; stroke-width: 2.2; stroke-dasharray: 8 6; }
      .textLight { fill: #111111; font-family: Calibri, Arial, sans-serif; font-size: 22px; font-weight: 700; }
      .field { fill: #111111; font-family: Calibri, Arial, sans-serif; font-size: 18px; font-weight: 600; }
      .note { fill: #111111; font-family: Calibri, Arial, sans-serif; font-size: 17px; font-weight: 600; }
      .rel { stroke: #111111; stroke-width: 2.6; fill: none; stroke-linecap: round; stroke-linejoin: round; }
      .thin { stroke: #d0d0d0; stroke-width: 1.5; }
    </style>
  </defs>

  <text x="90" y="86" class="title">PayGuard Entity Relationship Diagram</text>
  <text x="90" y="124" class="subtitle">Physical SQLite tables and the derived account profile used by the prototype</text>

  <g id="transactions">
    <rect x="110" y="205" width="430" height="520" rx="8" class="table"/>
    <rect x="110" y="205" width="430" height="58" rx="8" class="headBlue"/>
    <text x="325" y="243" class="textLight" text-anchor="middle">transactions</text>

    <text x="140" y="305" class="field">PK id</text>
    <text x="140" y="355" class="field">account_id</text>
    <text x="140" y="390" class="field">transaction_type</text>
    <text x="140" y="425" class="field">amount</text>
    <text x="140" y="460" class="field">currency</text>
    <text x="140" y="495" class="field">device_id</text>
    <text x="140" y="530" class="field">location</text>
    <text x="140" y="565" class="field">created_at</text>
    <text x="140" y="600" class="field">is_fraud</text>
    <text x="140" y="635" class="field">fraud_score</text>
    <text x="140" y="670" class="field">metadata_json</text>
    <text x="140" y="705" class="field">inserted_at</text>
  </g>

  <g id="alerts">
    <rect x="980" y="230" width="430" height="400" rx="8" class="table"/>
    <rect x="980" y="230" width="430" height="58" rx="8" class="headGreen"/>
    <text x="1195" y="268" class="textLight" text-anchor="middle">alerts</text>

    <text x="1010" y="330" class="field">PK id</text>
    <text x="1010" y="380" class="field">FK transaction_id</text>
    <text x="1010" y="415" class="field">risk_score</text>
    <text x="1010" y="450" class="field">alert_type</text>
    <text x="1010" y="485" class="field">reason</text>
    <text x="1010" y="520" class="field">status</text>
    <text x="1010" y="555" class="field">created_at</text>
    <text x="1010" y="590" class="field">resolved_at</text>
  </g>

  <g id="model-runs">
    <rect x="600" y="705" width="430" height="185" rx="8" class="table"/>
    <rect x="600" y="705" width="430" height="58" rx="8" class="headPurple"/>
    <text x="815" y="743" class="textLight" text-anchor="middle">model_runs</text>

    <text x="630" y="805" class="field">PK id</text>
    <text x="630" y="855" class="field">model_name, model_version</text>
    <text x="630" y="885" class="field">metrics_json, notes, created_at</text>
  </g>

  <g id="relationships">
    <path d="M540 430 H980" class="rel"/>
    <text x="575" y="412" class="note">1 transaction</text>
    <text x="840" y="412" class="note">0..* alerts</text>
    <text x="690" y="463" class="note">alerts.transaction_id references transactions.id</text>

    <line x1="560" y1="430" x2="560" y2="405" class="rel"/>
    <line x1="560" y1="430" x2="560" y2="455" class="rel"/>
    <line x1="950" y1="415" x2="980" y2="430" class="rel"/>
    <line x1="950" y1="445" x2="980" y2="430" class="rel"/>
    <line x1="950" y1="405" x2="950" y2="455" class="rel"/>

    <path d="M930 705 C1060 690 1195 675 1195 630" class="rel" stroke-dasharray="8 6" marker-end="url(#arrow)"/>
    <text x="720" y="676" class="note">model run records the model used for scoring</text>
  </g>
</svg>
